<svg xmlns="http://www.w3.org/2000/svg" xmlns:svg="http://www.w3.org/2000/svg" xmlns:xlink="http://www.w3.org/1999/xlink" id="svg2" width="16" height="16" style="overflow:visible" enable-background="new 0 0 128 129.396" overflow="visible" version="1.0" xml:space="preserve"><metadata id="metadata367"/><defs id="defs365"><radialGradient id="radialGradient5031" cx="605.714" cy="486.648" r="117.143" fx="605.714" fy="486.648" gradientTransform="matrix(-2.774389,0,0,1.969706,112.7623,-872.8854)" gradientUnits="userSpaceOnUse" xlink:href="#linearGradient5060"/><linearGradient id="linearGradient5060"><stop style="stop-color:black;stop-opacity:1" id="stop5062" offset="0"/><stop style="stop-color:black;stop-opacity:0" id="stop5064" offset="1"/></linearGradient><radialGradient id="radialGradient5029" cx="605.714" cy="486.648" r="117.143" fx="605.714" fy="486.648" gradientTransform="matrix(2.774389,0,0,1.969706,-1891.633,-872.8854)" gradientUnits="userSpaceOnUse" xlink:href="#linearGradient5060"/><linearGradient id="linearGradient5048"><stop style="stop-color:black;stop-opacity:0" id="stop5050" offset="0"/><stop id="stop5056" offset=".5" style="stop-color:black;stop-opacity:1"/><stop style="stop-color:black;stop-opacity:0" id="stop5052" offset="1"/></linearGradient><linearGradient id="linearGradient5027" x1="302.857" x2="302.857" y1="366.648" y2="609.505" gradientTransform="matrix(2.774389,0,0,1.969706,-1892.179,-872.8854)" gradientUnits="userSpaceOnUse" xlink:href="#linearGradient5048"/><linearGradient id="linearGradient2406"><stop style="stop-color:#7c7e79;stop-opacity:1" id="stop2408" offset="0"/><stop id="stop2414" offset=".172" style="stop-color:#848681;stop-opacity:1"/><stop style="stop-color:#898c86;stop-opacity:1" id="stop2410" offset="1"/></linearGradient><linearGradient id="linearGradient2390"><stop style="stop-color:#919191;stop-opacity:1" id="stop2392" offset="0"/><stop style="stop-color:#919191;stop-opacity:0" id="stop2394" offset="1"/></linearGradient><linearGradient id="linearGradient2378"><stop style="stop-color:#575757;stop-opacity:1" id="stop2380" offset="0"/><stop style="stop-color:#575757;stop-opacity:0" id="stop2382" offset="1"/></linearGradient><linearGradient id="linearGradient2368"><stop style="stop-color:#fff;stop-opacity:1" id="stop2370" offset="0"/><stop style="stop-color:#fff;stop-opacity:0" id="stop2372" offset="1"/></linearGradient><linearGradient id="linearGradient2349"><stop style="stop-color:#000;stop-opacity:1" id="stop2351" offset="0"/><stop style="stop-color:#000;stop-opacity:0" id="stop2353" offset="1"/></linearGradient><linearGradient id="linearGradient2341"><stop id="stop2343" offset="0" style="stop-color:#000;stop-opacity:1"/><stop id="stop2345" offset="1" style="stop-color:#000;stop-opacity:0"/></linearGradient><linearGradient id="linearGradient2329"><stop style="stop-color:#000;stop-opacity:.18556701" id="stop2331" offset="0"/><stop style="stop-color:#fff;stop-opacity:1" id="stop2333" offset="1"/></linearGradient><linearGradient id="linearGradient2319"><stop style="stop-color:#000;stop-opacity:1" id="stop2321" offset="0"/><stop style="stop-color:#000;stop-opacity:0" id="stop2323" offset="1"/></linearGradient><linearGradient id="linearGradient2307"><stop style="stop-color:#edd400;stop-opacity:1" id="stop2309" offset="0"/><stop style="stop-color:#980;stop-opacity:1" id="stop2311" offset="1"/></linearGradient><linearGradient id="linearGradient2299"><stop style="stop-color:#fff;stop-opacity:1" id="stop2301" offset="0"/><stop style="stop-color:#fff;stop-opacity:0" id="stop2303" offset="1"/></linearGradient><linearGradient id="XMLID_2_" x1="80.224" x2="48.046" y1="117.52" y2="59.8" gradientTransform="matrix(0.314683,0,0,0.314683,4.128264,3.742874)" gradientUnits="userSpaceOnUse"><stop style="stop-color:#ccc" id="stop17" offset="0"/><stop style="stop-color:#fff" id="stop19" offset=".983"/><midPointStop style="stop-color:#ccc" id="midPointStop48" offset="0"/><midPointStop style="stop-color:#ccc" id="midPointStop50" offset=".5"/><midPointStop style="stop-color:#fff" id="midPointStop52" offset=".983"/></linearGradient><linearGradient id="linearGradient1514" x1="52.006" x2="14.049" y1="166.133" y2="-42.219" gradientTransform="matrix(0.11083703,0,0,0.05490105,5.991561,5.1149043)" gradientUnits="userSpaceOnUse" xlink:href="#XMLID_2_"/><linearGradient id="XMLID_39_" x1="64.388" x2="64.388" y1="65.124" y2="35.569" gradientTransform="matrix(0.11648839,0,0,0.11648839,0.6148188,0.0010224)" gradientUnits="userSpaceOnUse"><stop style="stop-color:#fff" id="stop336" offset="0"/><stop style="stop-color:#ff6200" id="stop338" offset=".854"/><stop style="stop-color:#f25d00" id="stop340" offset="1"/><midPointStop style="stop-color:#fff" id="midPointStop335" offset="0"/><midPointStop style="stop-color:#fff" id="midPointStop337" offset=".5"/><midPointStop style="stop-color:#ff6200" id="midPointStop339" offset=".854"/><midPointStop style="stop-color:#ff6200" id="midPointStop341" offset=".5"/><midPointStop style="stop-color:#f25d00" id="midPointStop343" offset="1"/></linearGradient><radialGradient id="radialGradient2305" cx="7.533" cy="24.203" r="8.245" fx="7.533" fy="24.203" gradientTransform="matrix(1.3488029,0,0,1.3821064,-8.2850335,-25.808608)" gradientUnits="userSpaceOnUse" xlink:href="#linearGradient2299"/><radialGradient id="radialGradient2313" cx="19.986" cy="36.778" r="1.082" fx="19.986" fy="36.778" gradientTransform="matrix(0.3701771,0,0,0.32329271,-1.0521867,0.21466693)" gradientUnits="userSpaceOnUse" xlink:href="#linearGradient2307"/><radialGradient id="radialGradient2325" cx="20.444" cy="37.426" r="1.082" fx="20.444" fy="37.426" gradientTransform="matrix(0.3701771,0,0,0.32329271,-1.0521867,0.26905191)" gradientUnits="userSpaceOnUse" xlink:href="#linearGradient2319"/><linearGradient id="linearGradient2335" x1="17.603" x2="17.683" y1="26.057" y2="32.654" gradientTransform="matrix(0.29567409,0,0,0.35262692,0.2329991,-0.65599173)" gradientUnits="userSpaceOnUse" xlink:href="#linearGradient2329"/><radialGradient id="radialGradient2339" cx="11.681" cy="19.554" r="8.245" fx="11.681" fy="19.554" gradientTransform="matrix(1.3488029,0,0,-1.3821064,-1.6342753,34.686619)" gradientUnits="userSpaceOnUse" xlink:href="#linearGradient2341"/><radialGradient id="radialGradient2355" cx="24.023" cy="40.569" r="16.287" fx="24.023" fy="40.569" gradientTransform="matrix(1,0,0,0.43125,0,23.07369)" gradientUnits="userSpaceOnUse" xlink:href="#linearGradient2349"/><radialGradient id="radialGradient2374" cx="29.913" cy="30.443" r="4.002" fx="29.913" fy="30.443" gradientTransform="matrix(1.2341271,0,0,1.0355358,-26.902731,-21.587066)" gradientUnits="userSpaceOnUse" xlink:href="#linearGradient2368"/><radialGradient id="radialGradient2384" cx="24.195" cy="10.578" r="15.243" fx="24.195" fy="10.578" gradientTransform="matrix(0.3701771,-1.1794925e-8,1.4046399e-8,0.44083842,-0.9133701,0.47442387)" gradientUnits="userSpaceOnUse" xlink:href="#linearGradient2378"/><linearGradient id="linearGradient2396" x1="30.604" x2="30.604" y1="37.338" y2="36.112" gradientTransform="matrix(1.263867,0,0,0.859794,-6.499556,8.390924)" gradientUnits="userSpaceOnUse" xlink:href="#linearGradient2390"/><linearGradient id="linearGradient2412" x1="17.85" x2="19.04" y1="28.939" y2="41.032" gradientTransform="matrix(0.29238308,0,0,0.35835295,0.8688856,-0.47291959)" gradientUnits="userSpaceOnUse" xlink:href="#linearGradient2406"/></defs><g style="display:inline" id="g5022" transform="matrix(0.00709981,0,0,0.00611705,14.26173,13.72606)"><rect id="rect4173" width="1339.633" height="478.357" x="-1559.252" y="-150.697" style="opacity:.40206185;color:#000;fill:url(#linearGradient5027);fill-opacity:1;fill-rule:nonzero;stroke:none;stroke-width:1;marker:none;visibility:visible;display:inline;overflow:visible"/><path id="path5058" d="m -219.61876,-150.68038 c 0,0 0,478.33079 0,478.33079 142.874166,0.90045 345.40022,-107.16966 345.40014,-239.196175 0,-132.026537 -159.436816,-239.134595 -345.40014,-239.134615 z" style="opacity:.40206185;color:#000;fill:url(#radialGradient5029);fill-opacity:1;fill-rule:nonzero;stroke:none;stroke-width:1;marker:none;visibility:visible;display:inline;overflow:visible"/><path style="opacity:.40206185;color:#000;fill:url(#radialGradient5031);fill-opacity:1;fill-rule:nonzero;stroke:none;stroke-width:1;marker:none;visibility:visible;display:inline;overflow:visible" id="path5018" d="m -1559.2523,-150.68038 c 0,0 0,478.33079 0,478.33079 -142.8742,0.90045 -345.4002,-107.16966 -345.4002,-239.196175 0,-132.026537 159.4368,-239.134595 345.4002,-239.134615 z"/></g><path style="color:#000;fill:url(#linearGradient1514);fill-opacity:1;fill-rule:nonzero;stroke:#757575;stroke-width:.32896963;stroke-linecap:butt;stroke-linejoin:miter;stroke-miterlimit:4;stroke-opacity:1;stroke-dashoffset:0;marker:none;visibility:visible;display:inline;overflow:visible" id="rect1512" d="m 7.187923,2.7206198 1.9598219,0 c 0.2762451,0 4.5682251,5.0777508 4.5682251,5.375577 L 13.570065,14.18106 c 0,0.297826 -0.222393,0.537594 -0.498639,0.537594 l -10.3484822,0 c -0.2762465,0 -0.4986396,-0.239768 -0.4986396,-0.537594 l 0.01858,-6.0848632 c 0,-0.2978262 4.6687928,-5.375577 4.9450392,-5.375577 z"/><path style="fill:none" id="path5" d="m 15.525323,15.074144 -14.9105052,0 0,-14.91050384 14.9105052,0 0,14.91050384 z"/><path style="fill:url(#linearGradient2335);fill-opacity:1;fill-rule:evenodd" id="path2327" d="m 7.6420397,9.5686533 -0.015045,4.9644587 -3.8959156,0 -0.03667,-4.9644587 3.9476325,0 z" clip-rule="evenodd"/><path id="path2357" d="m 7.2408481,3.1226898 1.828773,0 c 0.2577749,0 4.2768879,4.737024 4.2768879,5.0148662 l -0.114204,5.991293 c 0,0.151082 -0.04728,0.21497 -0.168555,0.21497 l -10.3254302,0.0047 c -0.1212705,0 -0.1921062,-0.02629 -0.1921062,-0.149204 l 0.07084,-6.0617561 c 0,-0.2778423 4.3660203,-5.0148663 4.623794,-5.0148663 z" style="opacity:.3125;color:#000;fill:none;stroke:#fff;stroke-width:.32896945;stroke-linecap:butt;stroke-linejoin:miter;stroke-miterlimit:4;stroke-opacity:1;stroke-dashoffset:0;marker:none;visibility:visible;display:inline;overflow:visible"/><path id="path23" d="M 2.4468002,9.22095 2.4289515,10.07469 8.4715156,5.7391181 13.500272,9.4085837 13.52373,9.3060393 8.1383513,4.0740667 2.4468002,9.22095 z" clip-rule="evenodd" style="opacity:.2;fill:url(#radialGradient2384);fill-opacity:1;fill-rule:evenodd"/><path id="path188" d="m 7.3130707,9.897623 0,4.635489 -3.2275286,0 -0.062166,-4.635489 3.2896943,0 z" clip-rule="evenodd" style="fill:url(#linearGradient2412);fill-opacity:1;fill-rule:evenodd"/><path style="opacity:.40909089;fill:url(#radialGradient2325);fill-opacity:1;fill-rule:evenodd" id="path2315" d="m 6.5159303,12.018709 c 0.2213274,0 0.4002294,0.156131 0.4002294,0.348217 0,0.194029 -0.178902,0.351456 -0.4002294,0.351456 -0.221157,0 -0.4009104,-0.157427 -0.4009104,-0.351456 1.694e-4,-0.192086 0.1797534,-0.348217 0.4009104,-0.348217 z" clip-rule="evenodd"/><path id="path217" d="m 6.4782495,11.849144 c 0.221327,0 0.4002292,0.156131 0.4002292,0.348217 0,0.194029 -0.1789022,0.351455 -0.4002292,0.351455 -0.2211572,0 -0.4009108,-0.157426 -0.4009108,-0.351455 1.694e-4,-0.192086 0.1797536,-0.348217 0.4009108,-0.348217 z" clip-rule="evenodd" style="fill:url(#radialGradient2313);fill-opacity:1;fill-rule:evenodd"/><path id="path342" d="M 8.1183045,3.8312086 14.344728,9.47957 14.507463,9.608523 14.64026,9.5521429 14.517597,9.3015755 14.426271,9.228072 8.1183045,4.1052595 1.7397474,9.2843353 1.6615837,9.3317463 1.5902927,9.5642573 1.7328746,9.6067759 1.8593811,9.5053142 8.1183045,3.8312086 z" style="fill:url(#XMLID_39_)"/><path style="fill:#ef2929;stroke:#a40000;stroke-width:.32896942" id="path362" d="M 8.0796246,0.77574112 0.881202,6.7305273 0.6756852,9.0878984 1.333603,9.7669975 c 0,0 6.7134039,-5.644222 6.7846962,-5.7003698 L 14.576804,9.8378236 15.201327,9.0732997 14.669782,6.7338752 8.1182992,0.74137729 8.079625,0.77574104 z"/><path style="opacity:.40909089;color:#000;fill:url(#radialGradient2305);fill-opacity:1;fill-rule:nonzero;stroke:none;stroke-width:1;marker:none;visibility:visible;display:inline;overflow:visible" id="path1536" d="M 1.010459,6.8096293 0.9145463,8.9885138 8.0924708,2.9827103 8.0693356,1.0439847 1.010459,6.8096293 z"/><path id="path2337" d="M 8.1301524,2.9073477 8.1628717,0.9858042 14.521509,6.7927568 15.01227,8.9313251 8.1301524,2.9073477 z" style="opacity:.13636367;color:#000;fill:url(#radialGradient2339);fill-opacity:1;fill-rule:nonzero;stroke:none;stroke-width:1;marker:none;visibility:visible;display:inline;overflow:visible"/><path style="opacity:.31818183;color:#000;fill:none;stroke:#fff;stroke-width:.32896921;stroke-linecap:butt;stroke-linejoin:miter;stroke-miterlimit:4;stroke-opacity:1;stroke-dashoffset:0;marker:none;visibility:visible;display:inline;overflow:visible" id="rect2361" d="m 8.9915472,9.1475146 2.9738818,0 c 0.253502,0 0.457586,0.2040827 0.457586,0.4575855 l -0.0026,2.9867869 c 0,0.253502 -0.196172,0.416464 -0.449675,0.416464 l -2.9791737,0 c -0.2535035,0 -0.4575857,-0.204083 -0.4575857,-0.457586 l 0,-2.9456649 c 0,-0.2535028 0.2040822,-0.4575855 0.4575857,-0.4575855 z"/><rect style="color:#000;fill:#3465a4;fill-opacity:1;fill-rule:nonzero;stroke:#757575;stroke-width:.32896924;stroke-linecap:butt;stroke-linejoin:miter;stroke-miterlimit:4;stroke-opacity:1;stroke-dasharray:none;stroke-dashoffset:0;marker:none;visibility:visible;display:inline;overflow:visible" id="rect3263" width="3.29" height="3.277" x="8.796" y="9.409" rx=".125" ry=".125"/><path style="opacity:.39772728;color:#000;fill:url(#radialGradient2374);fill-opacity:1;fill-rule:nonzero;stroke:none;stroke-width:.99999958;marker:none;visibility:visible;display:inline;overflow:visible" id="rect2363" d="m 8.9931562,11.347805 c 1.1902058,0.108948 1.8184518,-0.475592 2.9173508,-0.510804 l 0.0081,-1.266364 -2.9316479,-0.00198 0.00619,1.779153 z"/></svg>