<svg xmlns="http://www.w3.org/2000/svg" xmlns:svg="http://www.w3.org/2000/svg" xmlns:xlink="http://www.w3.org/1999/xlink" id="svg2108" width="48" height="48" version="1.1"><defs id="defs3"><linearGradient id="linearGradient4356"><stop style="stop-color:#000;stop-opacity:1" id="stop4358" offset="0"/><stop style="stop-color:#000;stop-opacity:0" id="stop4360" offset="1"/></linearGradient><linearGradient id="linearGradient4344"><stop style="stop-color:#727e0a;stop-opacity:1" id="stop4346" offset="0"/><stop style="stop-color:#5b6508;stop-opacity:1" id="stop4348" offset="1"/></linearGradient><linearGradient id="linearGradient4338"><stop id="stop4340" offset="0" style="stop-color:#e9b15e;stop-opacity:1"/><stop id="stop4342" offset="1" style="stop-color:#966416;stop-opacity:1"/></linearGradient><linearGradient id="linearGradient4163"><stop style="stop-color:#3b74bc;stop-opacity:1" id="stop4165" offset="0"/><stop style="stop-color:#2d5990;stop-opacity:1" id="stop4167" offset="1"/></linearGradient><linearGradient id="linearGradient3824"><stop style="stop-color:#fff;stop-opacity:1" id="stop3826" offset="0"/><stop style="stop-color:#c9c9c9;stop-opacity:1" id="stop3828" offset="1"/></linearGradient><linearGradient id="linearGradient3816"><stop style="stop-color:#000;stop-opacity:1" id="stop3818" offset="0"/><stop style="stop-color:#000;stop-opacity:0" id="stop3820" offset="1"/></linearGradient><linearGradient id="linearGradient3800"><stop style="stop-color:#f4d9b1;stop-opacity:1" id="stop3802" offset="0"/><stop style="stop-color:#df9725;stop-opacity:1" id="stop3804" offset="1"/></linearGradient><radialGradient id="radialGradient3806" cx="29.345" cy="17.064" r="9.162" fx="29.345" fy="17.064" gradientUnits="userSpaceOnUse" xlink:href="#linearGradient3800"/><linearGradient id="linearGradient4175" x1="30.936" x2="30.936" y1="29.553" y2="35.803" gradientTransform="translate(0.707108,0.000000)" gradientUnits="userSpaceOnUse" xlink:href="#linearGradient3824"/><linearGradient id="linearGradient4326" x1="30.936" x2="30.936" y1="29.553" y2="35.803" gradientTransform="translate(-12.41789,-7.000000)" gradientUnits="userSpaceOnUse" xlink:href="#linearGradient3824"/><linearGradient id="linearGradient4332" x1="30.936" x2="30.936" y1="29.553" y2="35.803" gradientTransform="translate(-13.12500,-7.000000)" gradientUnits="userSpaceOnUse" xlink:href="#linearGradient3824"/><radialGradient id="radialGradient4350" cx="16.215" cy="19.836" r="13.565" fx="16.215" fy="19.836" gradientTransform="matrix(1.000000,0.000000,0.000000,0.681917,0.000000,8.233773)" gradientUnits="userSpaceOnUse" xlink:href="#linearGradient4344"/><linearGradient id="linearGradient4372" x1="20.662" x2="22.627" y1="35.818" y2="36.218" gradientTransform="matrix(0.983375,0.181588,-0.181588,0.983375,-7.072120,-9.824920)" gradientUnits="userSpaceOnUse" xlink:href="#linearGradient4356"/><linearGradient id="linearGradient4374" x1="22.687" x2="21.408" y1="36.39" y2="35.74" gradientTransform="matrix(-0.977685,0.210075,0.210075,0.977685,41.80576,-11.11866)" gradientUnits="userSpaceOnUse" xlink:href="#linearGradient4356"/><linearGradient id="linearGradient3092" x1="30.936" x2="30.936" y1="29.553" y2="35.803" gradientTransform="translate(-12.41789,-7)" gradientUnits="userSpaceOnUse" xlink:href="#linearGradient3824"/><linearGradient id="linearGradient3094" x1="22.687" x2="21.408" y1="36.39" y2="35.74" gradientTransform="matrix(-0.977685,0.210075,0.210075,0.977685,41.80576,-11.11866)" gradientUnits="userSpaceOnUse" xlink:href="#linearGradient4356"/><radialGradient id="radialGradient3096" cx="31.113" cy="19.009" r="8.662" fx="31.113" fy="19.009" gradientUnits="userSpaceOnUse" xlink:href="#linearGradient3816"/><radialGradient id="radialGradient3098" cx="28.09" cy="27.203" r="13.565" fx="28.09" fy="27.203" gradientTransform="matrix(1.297564,0,0,0.884831,-8.358505,4.940469)" gradientUnits="userSpaceOnUse" xlink:href="#linearGradient4163"/><linearGradient id="linearGradient3100" x1="30.936" x2="30.936" y1="29.553" y2="35.803" gradientUnits="userSpaceOnUse" xlink:href="#linearGradient3824"/><radialGradient id="radialGradient3102" cx="31.113" cy="19.009" r="8.662" fx="31.113" fy="19.009" gradientUnits="userSpaceOnUse" xlink:href="#linearGradient3816"/><radialGradient id="radialGradient3104" cx="29.345" cy="17.064" r="9.162" fx="29.345" fy="17.064" gradientTransform="matrix(0.787998,0,0,0.787998,6.221198,3.617627)" gradientUnits="userSpaceOnUse" xlink:href="#linearGradient3800"/><linearGradient id="linearGradient3106" x1="20.662" x2="22.627" y1="35.818" y2="36.218" gradientTransform="matrix(0.983375,0.181588,-0.181588,0.983375,6.231716,-2.651466)" gradientUnits="userSpaceOnUse" xlink:href="#linearGradient4356"/><linearGradient id="linearGradient3108" x1="22.687" x2="21.408" y1="36.39" y2="35.74" gradientTransform="matrix(-0.977685,0.210075,0.210075,0.977685,55.1096,-3.945209)" gradientUnits="userSpaceOnUse" xlink:href="#linearGradient4356"/><linearGradient id="aigrd1" x1="99.777" x2="153" y1="15.424" y2="248.631" gradientUnits="userSpaceOnUse"><stop style="stop-color:#184375" id="stop53300" offset="0"/><stop style="stop-color:#c8bddc" id="stop53302" offset="1"/></linearGradient><radialGradient id="radialGradient2308" cx="14.288" cy="68.873" r="11.69" fx="14.288" fy="72.568" gradientTransform="matrix(1.399258,-2.234445e-7,8.196178e-8,0.513264,4.365074,4.839285)" gradientUnits="userSpaceOnUse" xlink:href="#linearGradient2300"/><linearGradient id="linearGradient2300"><stop id="stop2302" offset="0" style="stop-color:#000;stop-opacity:.32673267"/><stop id="stop2304" offset="1" style="stop-color:#000;stop-opacity:0"/></linearGradient><radialGradient id="radialGradient3196" cx="14.288" cy="68.873" r="11.69" fx="14.288" fy="72.568" gradientTransform="matrix(1.399258,-2.234445e-7,8.196178e-8,0.513264,4.365074,4.839285)" gradientUnits="userSpaceOnUse" xlink:href="#linearGradient2300"/><linearGradient id="linearGradient3198" x1="99.777" x2="153" y1="15.424" y2="248.631" gradientTransform="matrix(0.200685,0,0,0.200685,-120.4429,51.108704)" gradientUnits="userSpaceOnUse" xlink:href="#aigrd1"/></defs><metadata id="metadata4"/><g id="layer2" style="display:inline"><g id="g3077" transform="matrix(1.0777231,0,0,1.0777231,-14.713113,-8.2653063)"><path id="path4173" d="m 22.583894,27.034641 4.24264,0 -2.474873,-2.298097 -0.53033,0.707107 -0.530331,-0.53033 -0.707106,2.12132 z" style="color:#000;fill:url(#linearGradient3092);fill-opacity:1;fill-rule:evenodd;stroke:none;stroke-width:1px;marker:none;visibility:visible;display:inline;overflow:visible"/><path style="opacity:.22784807;color:#000;fill:url(#linearGradient3094);fill-opacity:1;fill-rule:evenodd;stroke:none;stroke-width:1px;marker:none;visibility:visible;display:inline;overflow:visible" id="path4370" d="m 27.453661,32.743396 c 1.231251,-0.580978 1.80438,-2.002321 1.80438,-2.002321 -0.95912,-4.042983 -3.976149,-6.842821 -3.976149,-6.842821 0,0 2.464593,6.342602 2.171769,8.845142 z"/><path id="path4306" d="m 39.774755,19.008621 c 0,4.783923 -3.878135,8.662058 -8.662057,8.662058 -4.783923,0 -8.662058,-3.878135 -8.662058,-8.662058 0,-4.783922 3.878135,-8.662058 8.662058,-8.662058 4.783922,0 8.662057,3.878136 8.662057,8.662058 z" transform="matrix(1.77551,0,0,0.583984,-24.25322,28.27856)" style="color:#000;fill:url(#radialGradient3096);fill-opacity:1;fill-rule:evenodd;stroke:none;stroke-width:1px;marker:none;visibility:visible;display:inline;overflow:visible"/><path id="path4308" d="m 25.986174,41.636039 10.606602,0 c 3.005204,0 5.980484,-1.101932 7.071067,-4.242641 1.035639,-2.982476 0.176777,-8.662058 -6.540737,-13.258252 l -12.551146,0 c -6.717514,4.24264 -7.556991,10.044831 -6.010407,13.435028 1.575595,3.45379 4.24264,4.065865 7.424621,4.065865 z" style="color:#000;fill:url(#radialGradient3098);fill-opacity:1;fill-rule:evenodd;stroke:#204a87;stroke-width:1px;stroke-linecap:round;stroke-linejoin:round;stroke-miterlimit:4;stroke-opacity:1;stroke-dasharray:none;stroke-dashoffset:0;marker:none;visibility:visible;display:inline;overflow:visible"/><path id="path4310" d="m 26.693281,25.726136 c 3.18198,2.828427 4.596194,13.081476 4.596194,13.081476 0,0 1.414213,-10.253048 3.889087,-13.258252 l -8.485281,0.176776 z" style="color:#000;fill:url(#linearGradient3100);fill-opacity:1;fill-rule:evenodd;stroke:none;stroke-width:1px;marker:none;visibility:visible;display:inline;overflow:visible"/><path style="color:#000;fill:#729fcf;fill-opacity:1;fill-rule:evenodd;stroke:none;stroke-width:1px;marker:none;visibility:visible;display:inline;overflow:visible" id="path4312" d="m 28.972721,26.786797 c 0,0 -2.151323,1.660335 -1.965991,3.660533 -2.041226,-1.800794 -2.099873,-5.251524 -2.099873,-5.251524 l 4.065864,1.590991 z"/><path style="opacity:.21518986;color:#000;fill:none;stroke:#fff;stroke-width:.99999976px;stroke-linecap:round;stroke-linejoin:round;stroke-miterlimit:4;stroke-opacity:1;stroke-dasharray:none;stroke-dashoffset:0;marker:none;visibility:visible;display:inline;overflow:visible" id="path4314" d="m 25.914862,40.593933 10.493447,-0.0221 c 2.639723,0 5.253161,-0.967919 6.211112,-3.726667 0.909689,-2.61976 -0.09472,-7.608614 -5.995279,-11.645837 L 25.099417,24.956264 c -5.900557,3.726667 -7.04262,8.823219 -5.662029,12.044182 1.380592,3.220963 3.395211,3.57139 6.477474,3.593487 z"/><path id="path4316" d="m 33.410795,26.786797 c 0,0 2.151323,1.660335 1.965991,3.660533 2.041226,-1.800794 2.099873,-5.251524 2.099873,-5.251524 l -4.065864,1.590991 z" style="color:#000;fill:#729fcf;fill-opacity:1;fill-rule:evenodd;stroke:none;stroke-width:1px;marker:none;visibility:visible;display:inline;overflow:visible"/><path style="color:#000;fill:url(#radialGradient3102);fill-opacity:1;fill-rule:evenodd;stroke:none;stroke-width:1px;marker:none;visibility:visible;display:inline;overflow:visible" id="path4318" d="m 39.774755,19.008621 c 0,4.783923 -3.878135,8.662058 -8.662057,8.662058 -4.783923,0 -8.662058,-3.878135 -8.662058,-8.662058 0,-4.783922 3.878135,-8.662058 8.662058,-8.662058 4.783922,0 8.662057,3.878136 8.662057,8.662058 z" transform="translate(-0.125,3.5)"/><path id="path4320" d="m 39.774755,19.008621 c 0,4.783923 -3.878135,8.662058 -8.662057,8.662058 -4.783923,0 -8.662058,-3.878135 -8.662058,-8.662058 0,-4.783922 3.878135,-8.662058 8.662058,-8.662058 4.783922,0 8.662057,3.878136 8.662057,8.662058 z" style="color:#000;fill:url(#radialGradient3104);fill-opacity:1;fill-rule:evenodd;stroke:#c17d11;stroke-width:1px;stroke-linecap:round;stroke-linejoin:round;stroke-miterlimit:4;stroke-opacity:1;stroke-dasharray:none;stroke-dashoffset:0;marker:none;visibility:visible;display:inline;overflow:visible"/><path style="opacity:.19620254;color:#000;fill:none;stroke:#fff;stroke-width:1.14012825px;stroke-linecap:round;stroke-linejoin:round;stroke-miterlimit:4;stroke-opacity:1;stroke-dasharray:none;stroke-dashoffset:0;marker:none;visibility:visible;display:inline;overflow:visible" id="path4322" d="m 39.774755,19.008621 c 0,4.783923 -3.878135,8.662058 -8.662057,8.662058 -4.783923,0 -8.662058,-3.878135 -8.662058,-8.662058 0,-4.783922 3.878135,-8.662058 8.662058,-8.662058 4.783922,0 8.662057,3.878136 8.662057,8.662058 z" transform="matrix(0.877095,0,0,0.877095,3.823927,2.336267)"/><path id="path4354" d="m 21.85179,40.775197 c -1.247607,-0.544969 -1.805994,-1.858277 -1.805994,-1.858277 0.841281,-4.069136 3.719925,-7.046216 3.719925,-7.046216 0,0 -2.279321,6.411514 -1.913931,8.904493 z" style="opacity:.22784807;color:#000;fill:url(#linearGradient3106);fill-opacity:1;fill-rule:evenodd;stroke:none;stroke-width:1px;marker:none;visibility:visible;display:inline;overflow:visible"/><path style="opacity:.22784807;color:#000;fill:url(#linearGradient3108);fill-opacity:1;fill-rule:evenodd;stroke:none;stroke-width:1px;marker:none;visibility:visible;display:inline;overflow:visible" id="path4364" d="m 40.757497,39.916846 c 1.231251,-0.580978 1.80438,-2.002321 1.80438,-2.002321 -0.95912,-4.042983 -3.976149,-6.842821 -3.976149,-6.842821 0,0 2.464593,6.342602 2.171769,8.845142 z"/></g><g id="g3188" transform="matrix(0.60580224,0,0,0.60580224,90.284151,-14.805476)"><path style="color:#000;fill:url(#radialGradient3196);fill-opacity:1;fill-rule:evenodd;stroke:none;stroke-width:.50000042;marker:none;visibility:visible;display:inline;overflow:visible" id="path1538" d="m 44.285715,38.714287 c 0,5.43296 -8.922325,9.837245 -19.928572,9.837245 -11.006246,0 -19.9285713,-4.404285 -19.9285713,-9.837245 0,-5.432961 8.9223253,-9.837245 19.9285713,-9.837245 11.006247,0 19.928572,4.404284 19.928572,9.837245 z" transform="matrix(1.18638,0,0,1.18638,-124.39683,44.364813)"/><path id="path53304" d="m -95.57134,95.355849 -19.91061,-19.910614 19.91061,-19.910615 19.910614,19.910615 -19.910614,19.910614 0,0 z" style="fill:url(#linearGradient3198);fill-rule:nonzero;stroke:#3f4561;stroke-width:1;stroke-linecap:round;stroke-linejoin:round;stroke-miterlimit:4;stroke-opacity:1"/><path id="path53359" d="m -76.352079,75.445235 -19.219261,-19.219262 -19.21926,19.219262 0.78107,0.624932 18.609629,-18.428133 19.048016,17.803201 -1.94e-4,0 z" style="opacity:.72000002;fill:#fff;fill-rule:nonzero;stroke:none"/><path id="path53361" d="m -110.93137,79.304663 0.73845,-1.024184 c 0.63675,0.268492 1.30062,0.485069 1.98619,0.644885 l -0.006,1.576858 c 0.42772,0.08834 0.86301,0.156136 1.3041,0.204371 l 0.48177,-1.501889 c 0.34405,0.02848 0.69177,0.04417 1.04337,0.04417 0.3512,0 0.69912,-0.0155 1.04316,-0.04417 l 0.48178,1.501889 c 0.44128,-0.04823 0.87637,-0.116036 1.3041,-0.204371 l -0.006,-1.577051 c 0.68576,-0.159623 1.34943,-0.3762 1.98618,-0.644692 l 0.922482,1.279502 c 0.402351,-0.182094 0.794241,-0.382591 1.174895,-0.600522 l -0.492817,-1.498016 c 0.59723,-0.36225 1.161723,-0.773319 1.687471,-1.227972 l 1.272141,0.931779 c 0.325638,-0.296581 0.637329,-0.608272 0.933716,-0.93391 l -0.931585,-1.271947 c 0.454847,-0.525748 0.865916,-1.090047 1.228166,-1.687665 l 1.498015,0.493011 c 0.217915,-0.380848 0.418606,-0.772932 0.600312,-1.175088 l -1.279308,-0.922287 c 0.268492,-0.636749 0.485068,-1.300618 0.645079,-1.986376 l 1.576663,0.0058 c 0.08834,-0.427727 0.156137,-0.86301 0.204178,-1.304298 l -1.501695,-0.481774 c 0.02886,-0.343848 0.04417,-0.691764 0.04417,-1.043167 0,-0.351403 -0.01569,-0.699125 -0.04417,-1.043361 l 1.501695,-0.481774 c -0.04785,-0.441083 -0.116037,-0.876172 -0.203984,-1.304093 l -1.577051,0.006 c -0.159817,-0.685754 -0.376393,-1.349622 -0.644691,-1.986176 l 1.279308,-0.922289 c -0.181707,-0.402351 -0.382591,-0.794241 -0.600135,-1.175089 l -1.498209,0.493011 c -0.362251,-0.597424 -0.773319,-1.161723 -1.227973,-1.687277 l 0.931586,-1.272141 c -0.278372,-0.30588 -0.571078,-0.598005 -0.875408,-0.87812 l -18.838991,18.839189 1.00694,1.006942 0.29871,-0.218706 c 0.52575,0.454653 1.09005,0.865722 1.68747,1.227972 l -0.24195,0.735157 1.10806,1.108062 -3.9e-4,-1.93e-4 z" style="opacity:.5;fill:#fff;fill-rule:nonzero;stroke:none"/><path id="path53363" d="m -91.408165,84.350607 c 0,-6.484682 4.233883,-11.979469 10.08724,-13.874023 l -2.226972,-2.227167 c -0.01685,0.007 -0.0339,0.01298 -0.05056,0.02015 l -0.181513,-0.251832 -1.412004,-1.412004 c -0.463178,0.2189 -0.91667,0.45446 -1.359314,0.707648 l 0.694089,2.109193 c -0.841314,0.509669 -1.635748,1.08869 -2.375747,1.728732 l -1.79111,-1.311659 c -0.458721,0.41746 -0.897297,0.856036 -1.314564,1.314565 l 1.311465,1.790914 c -0.640041,0.740195 -1.218868,1.534628 -1.728731,2.375748 l -2.109387,-0.694089 c -0.306654,0.536403 -0.589093,1.088304 -0.844994,1.654732 l 1.801182,1.298293 c -0.377942,0.896329 -0.682852,1.831014 -0.907758,2.796501 l -2.219999,-0.0085 c -0.124172,0.602266 -0.219869,1.215188 -0.287476,1.836051 l 2.114423,0.678398 c -0.04029,0.484293 -0.06199,0.97401 -0.06199,1.46857 0,0.494753 0.0217,0.98447 0.06199,1.468763 l -2.114423,0.677816 c 0.06761,0.621251 0.163304,1.233979 0.28767,1.836245 l 2.219805,-0.0083 c 0.224906,0.965487 0.529816,1.900172 0.907758,2.796502 l -1.801182,1.298486 c 0.142382,0.31479 0.293869,0.624931 0.452136,0.930423 l 3.804023,-3.803636 c -0.61602,-1.614245 -0.95425,-3.365836 -0.95425,-5.196269 l 1.93e-4,-1.94e-4 z" style="opacity:.5;fill:#fff;fill-rule:nonzero;stroke:none"/><path id="path53365" d="m -114.65209,75.583743 19.08075,19.080753 19.219261,-19.219261 -0.715099,-0.682219 -18.479649,18.438152 -19.105263,-17.617618 0,1.93e-4 z" style="opacity:.35;fill:#000;fill-rule:nonzero;stroke:none"/></g></g></svg>