<svg xmlns="http://www.w3.org/2000/svg" xmlns:svg="http://www.w3.org/2000/svg" xmlns:xlink="http://www.w3.org/1999/xlink" id="svg11300" width="38" height="38.001" version="1.1"><defs id="defs3"><linearGradient id="linearGradient1442"><stop id="stop1444" offset="0" style="stop-color:#73d216"/><stop id="stop1446" offset="1" style="stop-color:#4e9a06"/></linearGradient><linearGradient id="linearGradient8662"><stop id="stop8664" offset="0" style="stop-color:#000;stop-opacity:1"/><stop id="stop8666" offset="1" style="stop-color:#000;stop-opacity:0"/></linearGradient><linearGradient id="linearGradient8650"><stop id="stop8652" offset="0" style="stop-color:#fff;stop-opacity:1"/><stop id="stop8654" offset="1" style="stop-color:#fff;stop-opacity:0"/></linearGradient><radialGradient id="radialGradient1444" cx="24.837" cy="36.421" r="15.645" fx="24.837" fy="36.421" gradientTransform="matrix(1,0,0,0.536723,0,16.87306)" gradientUnits="userSpaceOnUse" xlink:href="#linearGradient8662"/><radialGradient id="radialGradient1469" cx="35.293" cy="20.494" r="16.956" fx="35.293" fy="20.494" gradientTransform="matrix(0,-0.843022,1.020168,0,0.606436,42.58614)" gradientUnits="userSpaceOnUse" xlink:href="#linearGradient1442"/><radialGradient id="radialGradient1471" cx="15.987" cy="1.535" r="17.171" fx="15.987" fy="1.535" gradientTransform="matrix(0,-2.046729,-1.55761,0,44.11559,66.93275)" gradientUnits="userSpaceOnUse" xlink:href="#linearGradient8650"/></defs><metadata id="metadata4"/><g id="layer1" transform="translate(-4.9999973,-4.9992098)"><path id="path8660" d="m 40.481863,36.421127 c 0,4.637477 -7.004387,8.396894 -15.644737,8.396894 -8.64035,0 -15.6447375,-3.759417 -15.6447375,-8.396894 0,-4.637476 7.0043875,-8.396893 15.6447375,-8.396893 8.64035,0 15.644737,3.759417 15.644737,8.396893 z" transform="matrix(1.214466,0,0,0.595458,-6.163846,16.31275)" style="opacity:.20454544;color:#000;fill:url(#radialGradient1444);fill-opacity:1;fill-rule:evenodd;stroke:none;stroke-width:1;marker:none;visibility:visible;display:inline;overflow:visible"/><g id="g1464" transform="matrix(-1,0,0,-1,47.02856,43.99921)"><path style="color:#000;fill:url(#radialGradient1469);fill-opacity:1;fill-rule:evenodd;stroke:#3a7304;stroke-width:1.00000036;stroke-linecap:round;stroke-linejoin:round;stroke-miterlimit:10;stroke-opacity:1;stroke-dasharray:none;stroke-dashoffset:0;marker:none;visibility:visible;display:inline;overflow:visible" id="path8643" d="m 14.519136,38.5 18.005029,-0.0039 0,-12.991626 7.995366,-0.0078 L 23.374809,5.4992135 6.5285585,25.497284 14.52444,25.501074 14.519136,38.5 z"/><path style="opacity:.5080214;color:#000;fill:url(#radialGradient1471);fill-opacity:1;fill-rule:evenodd;stroke:none;stroke-width:1;marker:none;visibility:visible;display:inline;overflow:visible" id="path8645" d="m 39.429889,24.993467 -7.406391,0.01172 0.0027,12.992837 -15.378556,-0.0092 C 17.417545,19.64788 27.370272,26.995797 32.029282,16.341991 l 7.400607,8.651476 z"/><path id="path8658" d="m 15.520704,37.496094 16.001405,0.0039 0,-12.99295 6.816811,-0.01563 L 23.384644,7.0388396 8.6781173,24.495782 l 6.8399007,0.0052 0.0027,12.995065 z" style="opacity:.48128339;color:#000;fill:none;stroke:#fff;stroke-width:1.00000036;stroke-linecap:butt;stroke-linejoin:miter;stroke-miterlimit:10;stroke-opacity:1;stroke-dasharray:none;stroke-dashoffset:0;marker:none;visibility:visible;display:inline;overflow:visible"/></g></g></svg>