<svg xmlns="http://www.w3.org/2000/svg" xmlns:svg="http://www.w3.org/2000/svg" xmlns:xlink="http://www.w3.org/1999/xlink" id="svg11300" width="48" height="48" version="1.1"><defs id="defs3"><radialGradient id="radialGradient5031" cx="605.714" cy="486.648" r="117.143" fx="605.714" fy="486.648" gradientTransform="matrix(-2.774389,0,0,1.969706,112.7623,-872.8854)" gradientUnits="userSpaceOnUse" xlink:href="#linearGradient5060"/><linearGradient id="linearGradient5060"><stop style="stop-color:black;stop-opacity:1" id="stop5062" offset="0"/><stop style="stop-color:black;stop-opacity:0" id="stop5064" offset="1"/></linearGradient><radialGradient id="radialGradient5029" cx="605.714" cy="486.648" r="117.143" fx="605.714" fy="486.648" gradientTransform="matrix(2.774389,0,0,1.969706,-1891.633,-872.8854)" gradientUnits="userSpaceOnUse" xlink:href="#linearGradient5060"/><linearGradient id="linearGradient5048"><stop style="stop-color:black;stop-opacity:0" id="stop5050" offset="0"/><stop id="stop5056" offset=".5" style="stop-color:black;stop-opacity:1"/><stop style="stop-color:black;stop-opacity:0" id="stop5052" offset="1"/></linearGradient><linearGradient id="linearGradient5027" x1="302.857" x2="302.857" y1="366.648" y2="609.505" gradientTransform="matrix(2.774389,0,0,1.969706,-1892.179,-872.8854)" gradientUnits="userSpaceOnUse" xlink:href="#linearGradient5048"/><linearGradient id="linearGradient4649"><stop id="stop4651" offset="0" style="stop-color:#80837d;stop-opacity:1"/><stop id="stop4653" offset="1" style="stop-color:#4c4d4a;stop-opacity:1"/></linearGradient><linearGradient id="linearGradient4639"><stop style="stop-color:#555753;stop-opacity:1" id="stop4641" offset="0"/><stop style="stop-color:#7c7f79;stop-opacity:1" id="stop4643" offset="1"/></linearGradient><linearGradient id="linearGradient4633"><stop style="stop-color:#fff;stop-opacity:1" id="stop4635" offset="0"/><stop style="stop-color:#fff;stop-opacity:0" id="stop4637" offset="1"/></linearGradient><linearGradient id="linearGradient4596"><stop style="stop-color:#75507b;stop-opacity:1" id="stop4598" offset="0"/><stop style="stop-color:#543958;stop-opacity:1" id="stop4600" offset="1"/></linearGradient><linearGradient id="linearGradient4586"><stop style="stop-color:#204a87;stop-opacity:1" id="stop4588" offset="0"/><stop style="stop-color:#142e55;stop-opacity:1" id="stop4590" offset="1"/></linearGradient><linearGradient id="linearGradient3697"><stop style="stop-color:#c8d5e6;stop-opacity:1" id="stop3699" offset="0"/><stop style="stop-color:#427ebf;stop-opacity:1" id="stop3701" offset="1"/></linearGradient><linearGradient id="linearGradient3689"><stop id="stop3691" offset="0" style="stop-color:#5079ad;stop-opacity:1"/><stop id="stop3693" offset="1" style="stop-color:#729fcf"/></linearGradient><linearGradient id="linearGradient3568"><stop style="stop-color:#d6d6d6;stop-opacity:1" id="stop3570" offset="0"/><stop style="stop-color:#f0f0f0;stop-opacity:1" id="stop3572" offset="1"/></linearGradient><linearGradient id="linearGradient3560"><stop style="stop-color:#f0f0f0;stop-opacity:1" id="stop3562" offset="0"/><stop style="stop-color:#c9c9c9;stop-opacity:1" id="stop3564" offset="1"/></linearGradient><linearGradient id="linearGradient3550"><stop id="stop3552" offset="0" style="stop-color:#8b8b8b;stop-opacity:1"/><stop id="stop3554" offset="1" style="stop-color:#a9a9a9;stop-opacity:1"/></linearGradient><linearGradient id="linearGradient3536"><stop style="stop-color:#b0b0b0;stop-opacity:1" id="stop3538" offset="0"/><stop style="stop-color:#757575;stop-opacity:1" id="stop3540" offset="1"/></linearGradient><linearGradient id="linearGradient3528"><stop style="stop-color:#000;stop-opacity:1" id="stop3530" offset="0"/><stop style="stop-color:#000;stop-opacity:0" id="stop3532" offset="1"/></linearGradient><linearGradient id="linearGradient3518"><stop style="stop-color:#fff;stop-opacity:1" id="stop3520" offset="0"/><stop style="stop-color:#fff;stop-opacity:0" id="stop3522" offset="1"/></linearGradient><linearGradient id="linearGradient3508"><stop style="stop-color:#b0b0b0;stop-opacity:1" id="stop3510" offset="0"/><stop style="stop-color:#939393;stop-opacity:1" id="stop3512" offset="1"/></linearGradient><linearGradient id="linearGradient3514" x1="16.94" x2="16.94" y1="27.853" y2="24.135" gradientTransform="translate(-2.121319,3.005205)" gradientUnits="userSpaceOnUse" xlink:href="#linearGradient3508"/><linearGradient id="linearGradient3524" x1="17.457" x2="17.457" y1="37.662" y2="27.232" gradientTransform="translate(-2.121319,3.005205)" gradientUnits="userSpaceOnUse" xlink:href="#linearGradient3518"/><radialGradient id="radialGradient3534" cx="17.015" cy="39.25" r="9.502" fx="17.015" fy="39.25" gradientTransform="matrix(1.000000,0.000000,0.000000,0.502326,-2.992397e-15,19.53350)" gradientUnits="userSpaceOnUse" xlink:href="#linearGradient3528"/><radialGradient id="radialGradient3542" cx="18.164" cy="22.532" r="2.842" fx="18.164" fy="22.532" gradientTransform="matrix(1.000000,0.000000,0.000000,0.860061,0.000000,3.253760)" gradientUnits="userSpaceOnUse" xlink:href="#linearGradient3536"/><radialGradient id="radialGradient3548" cx="17.097" cy="19.777" r="4.547" fx="17.097" fy="19.777" gradientTransform="matrix(1.208333,0.000000,0.000000,0.636493,-5.683292,8.681835)" gradientUnits="userSpaceOnUse" xlink:href="#linearGradient3550"/><radialGradient id="radialGradient3566" cx="12.911" cy="13.002" r="7.489" fx="12.911" fy="13.002" gradientTransform="matrix(1.802725,2.307502e-23,-2.636931e-23,1.503342,-12.48525,-2.659143)" gradientUnits="userSpaceOnUse" xlink:href="#linearGradient3560"/><linearGradient id="linearGradient3574" x1="14.883" x2="13.401" y1="27.847" y2="20.069" gradientTransform="translate(-2.121319,3.005205)" gradientUnits="userSpaceOnUse" xlink:href="#linearGradient3568"/><radialGradient id="radialGradient3610" cx="17.097" cy="19.777" r="4.547" fx="17.097" fy="19.777" gradientTransform="matrix(1.208333,0.000000,0.000000,0.636493,-5.683292,8.681835)" gradientUnits="userSpaceOnUse" xlink:href="#linearGradient3550"/><radialGradient id="radialGradient3612" cx="12.911" cy="13.002" r="7.489" fx="12.911" fy="13.002" gradientTransform="matrix(1.802725,2.307502e-23,-2.636931e-23,1.503342,-12.48525,-2.659143)" gradientUnits="userSpaceOnUse" xlink:href="#linearGradient3560"/><linearGradient id="linearGradient3616" x1="17.457" x2="17.457" y1="37.662" y2="27.232" gradientTransform="translate(-2.121319,3.005205)" gradientUnits="userSpaceOnUse" xlink:href="#linearGradient3518"/><linearGradient id="linearGradient3620" x1="14.883" x2="13.401" y1="27.847" y2="20.069" gradientTransform="translate(-2.121319,3.005205)" gradientUnits="userSpaceOnUse" xlink:href="#linearGradient3568"/><radialGradient id="radialGradient3661" cx="17.015" cy="39.25" r="9.502" fx="17.015" fy="39.25" gradientTransform="matrix(1.000000,0.000000,0.000000,0.502326,5.762756e-15,19.53350)" gradientUnits="userSpaceOnUse" xlink:href="#linearGradient3528"/><linearGradient id="linearGradient3663" x1="14.883" x2="13.401" y1="27.847" y2="20.069" gradientTransform="translate(15.99833,-9.914664)" gradientUnits="userSpaceOnUse" xlink:href="#linearGradient3568"/><linearGradient id="linearGradient3665" x1="16.94" x2="16.94" y1="27.853" y2="24.135" gradientTransform="translate(15.99833,-9.914664)" gradientUnits="userSpaceOnUse" xlink:href="#linearGradient3508"/><linearGradient id="linearGradient3667" x1="17.457" x2="17.457" y1="37.662" y2="27.232" gradientTransform="translate(15.99833,-9.914664)" gradientUnits="userSpaceOnUse" xlink:href="#linearGradient3518"/><radialGradient id="radialGradient3669" cx="18.164" cy="22.532" r="2.842" fx="18.164" fy="22.532" gradientTransform="matrix(1.000000,0.000000,0.000000,0.860061,0.000000,3.253760)" gradientUnits="userSpaceOnUse" xlink:href="#linearGradient3536"/><radialGradient id="radialGradient3671" cx="12.911" cy="13.002" r="7.489" fx="12.911" fy="13.002" gradientTransform="matrix(1.802725,2.307502e-23,-2.636931e-23,1.503342,5.634344,-15.57903)" gradientUnits="userSpaceOnUse" xlink:href="#linearGradient3560"/><radialGradient id="radialGradient3673" cx="17.097" cy="19.777" r="4.547" fx="17.097" fy="19.777" gradientTransform="matrix(1.208333,0.000000,0.000000,0.636493,12.43635,-4.238032)" gradientUnits="userSpaceOnUse" xlink:href="#linearGradient3550"/><radialGradient id="radialGradient3675" cx="17.015" cy="39.25" r="9.502" fx="17.015" fy="39.25" gradientTransform="matrix(1.000000,0.000000,0.000000,0.502326,5.762756e-15,19.53350)" gradientUnits="userSpaceOnUse" xlink:href="#linearGradient3528"/><linearGradient id="linearGradient3677" x1="14.883" x2="13.401" y1="27.847" y2="20.069" gradientTransform="translate(15.99833,-9.914664)" gradientUnits="userSpaceOnUse" xlink:href="#linearGradient3689"/><linearGradient id="linearGradient3681" x1="17.457" x2="17.457" y1="37.662" y2="27.232" gradientTransform="translate(15.99833,-9.914664)" gradientUnits="userSpaceOnUse" xlink:href="#linearGradient3518"/><radialGradient id="radialGradient3705" cx="27.849" cy="4.607" r="7.489" fx="27.849" fy="4.607" gradientTransform="matrix(1.000000,0.000000,0.000000,0.833928,2.121324,0.655729)" gradientUnits="userSpaceOnUse" xlink:href="#linearGradient3697"/><radialGradient id="radialGradient4594" cx="30.974" cy="12.173" r="4.891" fx="30.974" fy="12.173" gradientTransform="matrix(2.132075,-4.734158e-15,2.267378e-15,1.021136,-32.94404,-3.689447)" gradientUnits="userSpaceOnUse" xlink:href="#linearGradient4586"/><radialGradient id="radialGradient4602" cx="18.164" cy="22.429" r="2.842" fx="18.164" fy="22.429" gradientTransform="matrix(1.870990,-2.499894e-15,2.150062e-15,1.609166,-15.82050,-13.54799)" gradientUnits="userSpaceOnUse" xlink:href="#linearGradient4596"/><linearGradient id="linearGradient4619" x1="31.643" x2="31.643" y1="13.617" y2="9.638" gradientTransform="translate(2.121324,-0.883885)" gradientUnits="userSpaceOnUse" xlink:href="#linearGradient4633"/><linearGradient id="linearGradient4621" x1="31.643" x2="31.643" y1="13.617" y2="9.638" gradientTransform="translate(2.121324,-0.883885)" gradientUnits="userSpaceOnUse" xlink:href="#linearGradient4633"/><linearGradient id="linearGradient4645" x1="15.335" x2="15.335" y1="28.378" y2="34.388" gradientUnits="userSpaceOnUse" xlink:href="#linearGradient4639"/><radialGradient id="radialGradient4647" cx="18.164" cy="22.224" r="2.842" fx="18.164" fy="22.224" gradientTransform="matrix(1.000000,0.000000,0.000000,0.860061,0.000000,3.253760)" gradientUnits="userSpaceOnUse" xlink:href="#linearGradient4649"/><linearGradient id="linearGradient6715" x1="302.857" x2="302.857" y1="366.648" y2="609.505" gradientTransform="matrix(2.774389,0,0,1.969706,-1892.179,-872.8854)" gradientUnits="userSpaceOnUse" xlink:href="#linearGradient5048"/><radialGradient id="radialGradient6717" cx="605.714" cy="486.648" r="117.143" fx="605.714" fy="486.648" gradientTransform="matrix(2.774389,0,0,1.969706,-1891.633,-872.8854)" gradientUnits="userSpaceOnUse" xlink:href="#linearGradient5060"/><radialGradient id="radialGradient6719" cx="605.714" cy="486.648" r="117.143" fx="605.714" fy="486.648" gradientTransform="matrix(-2.774389,0,0,1.969706,112.7623,-872.8854)" gradientUnits="userSpaceOnUse" xlink:href="#linearGradient5060"/><linearGradient id="linearGradient3766" x1="14.883" x2="13.401" y1="27.847" y2="20.069" gradientTransform="translate(-2.121319,3.005205)" gradientUnits="userSpaceOnUse" xlink:href="#linearGradient3568"/><linearGradient id="linearGradient3768" x1="302.857" x2="302.857" y1="366.648" y2="609.505" gradientTransform="matrix(2.774389,0,0,1.969706,-1892.179,-872.8854)" gradientUnits="userSpaceOnUse" xlink:href="#linearGradient5048"/><radialGradient id="radialGradient3770" cx="605.714" cy="486.648" r="117.143" fx="605.714" fy="486.648" gradientTransform="matrix(2.774389,0,0,1.969706,-1891.633,-872.8854)" gradientUnits="userSpaceOnUse" xlink:href="#linearGradient5060"/><radialGradient id="radialGradient3772" cx="605.714" cy="486.648" r="117.143" fx="605.714" fy="486.648" gradientTransform="matrix(-2.774389,0,0,1.969706,112.7623,-872.8854)" gradientUnits="userSpaceOnUse" xlink:href="#linearGradient5060"/><linearGradient id="linearGradient3774" x1="16.94" x2="16.94" y1="27.853" y2="24.135" gradientTransform="translate(-2.121319,3.005205)" gradientUnits="userSpaceOnUse" xlink:href="#linearGradient3508"/><linearGradient id="linearGradient3776" x1="17.457" x2="17.457" y1="37.662" y2="27.232" gradientTransform="translate(-2.121319,3.005205)" gradientUnits="userSpaceOnUse" xlink:href="#linearGradient3518"/><radialGradient id="radialGradient3778" cx="18.164" cy="22.532" r="2.842" fx="18.164" fy="22.532" gradientTransform="matrix(1,0,0,0.860061,0,3.25376)" gradientUnits="userSpaceOnUse" xlink:href="#linearGradient3536"/><radialGradient id="radialGradient3780" cx="12.911" cy="13.002" r="7.489" fx="12.911" fy="13.002" gradientTransform="matrix(1.802725,0,0,1.503342,-12.48525,-2.659143)" gradientUnits="userSpaceOnUse" xlink:href="#linearGradient3560"/><radialGradient id="radialGradient3782" cx="17.097" cy="19.777" r="4.547" fx="17.097" fy="19.777" gradientTransform="matrix(1.208333,0,0,0.636493,-5.683292,8.681835)" gradientUnits="userSpaceOnUse" xlink:href="#linearGradient3550"/><linearGradient id="linearGradient3784" x1="14.883" x2="13.401" y1="27.847" y2="20.069" gradientTransform="translate(-2.121319,3.005205)" gradientUnits="userSpaceOnUse" xlink:href="#linearGradient3568"/><linearGradient id="linearGradient3786" x1="15.335" x2="15.335" y1="28.378" y2="34.388" gradientUnits="userSpaceOnUse" xlink:href="#linearGradient4639"/><linearGradient id="linearGradient3788" x1="17.457" x2="17.457" y1="37.662" y2="27.232" gradientTransform="translate(-2.121319,3.005205)" gradientUnits="userSpaceOnUse" xlink:href="#linearGradient3518"/><radialGradient id="radialGradient3790" cx="18.164" cy="22.224" r="2.842" fx="18.164" fy="22.224" gradientTransform="matrix(1,0,0,0.860061,0,3.25376)" gradientUnits="userSpaceOnUse" xlink:href="#linearGradient4649"/><radialGradient id="radialGradient3792" cx="12.911" cy="13.002" r="7.489" fx="12.911" fy="13.002" gradientTransform="matrix(1.802725,0,0,1.503342,-12.48525,-2.659143)" gradientUnits="userSpaceOnUse" xlink:href="#linearGradient3560"/><radialGradient id="radialGradient3794" cx="17.097" cy="19.777" r="4.547" fx="17.097" fy="19.777" gradientTransform="matrix(1.208333,0,0,0.636493,-5.683292,8.681835)" gradientUnits="userSpaceOnUse" xlink:href="#linearGradient3550"/><radialGradient id="radialGradient3196" cx="14.288" cy="68.873" r="11.69" fx="14.288" fy="72.568" gradientTransform="matrix(1.399258,-2.234445e-7,8.196178e-8,0.513264,4.365074,4.839285)" gradientUnits="userSpaceOnUse" xlink:href="#linearGradient2300"/><linearGradient id="linearGradient2300"><stop id="stop2302" offset="0" style="stop-color:#000;stop-opacity:.32673267"/><stop id="stop2304" offset="1" style="stop-color:#000;stop-opacity:0"/></linearGradient><linearGradient id="linearGradient3198" x1="99.777" x2="153" y1="15.424" y2="248.631" gradientTransform="matrix(0.200685,0,0,0.200685,-120.4429,51.108704)" gradientUnits="userSpaceOnUse" xlink:href="#aigrd1"/><linearGradient id="aigrd1" x1="99.777" x2="153" y1="15.424" y2="248.631" gradientUnits="userSpaceOnUse"><stop style="stop-color:#184375" id="stop53300" offset="0"/><stop style="stop-color:#c8bddc" id="stop53302" offset="1"/></linearGradient></defs><metadata id="metadata4"/><g id="layer1"><g id="g3742" transform="matrix(1.211212,0,0,1.211212,2.943217,-15.555535)"><path id="rect2564" d="m 13.086385,18.12474 3.702495,0 c 4.286457,0 9.54711,1.317516 9.54711,1.856155 l 0,22.627416 c 0,0.538639 -0.436877,0.972272 -0.979546,0.972272 l -20.8376227,0 c -0.5426681,0 -0.9795465,-0.433633 -0.9795465,-0.972272 l 0,-22.627416 c 0,-0.538639 5.1716789,-1.856155 9.5471102,-1.856155 z" style="color:#000;fill:url(#linearGradient3766);fill-opacity:1;fill-rule:evenodd;stroke:#949494;stroke-width:1.00000012;stroke-linecap:butt;stroke-linejoin:miter;stroke-miterlimit:4;stroke-opacity:1;stroke-dashoffset:0;marker:none;visibility:visible;display:inline;overflow:visible"/><path style="opacity:.61988304;color:#000;fill:none;stroke:#fff;stroke-width:1;stroke-linecap:butt;stroke-linejoin:round;stroke-miterlimit:4;stroke-opacity:1;stroke-dasharray:none;stroke-dashoffset:0;marker:none;visibility:visible;display:inline;overflow:visible" id="path3576" d="m 13.243834,18.986251 3.387609,0 c 3.921907,0 8.735157,1.521517 8.735157,1.521517 l 0,22.069521 c 0,0 -20.8579228,0 -20.8579228,0 l 0,-22.069521 c 0,0 4.7318435,-1.521517 8.7351568,-1.521517 z"/><g id="g5022" transform="matrix(0.01518738,0,0,0.02086758,28.3832,40.0286)"><rect style="opacity:.40206185;color:#000;fill:url(#linearGradient3768);fill-opacity:1;fill-rule:nonzero;stroke:none;stroke-width:1;marker:none;visibility:visible;display:inline;overflow:visible" id="rect4173" width="1339.633" height="478.357" x="-1559.252" y="-150.697"/><path style="opacity:.40206185;color:#000;fill:url(#radialGradient3770);fill-opacity:1;fill-rule:nonzero;stroke:none;stroke-width:1;marker:none;visibility:visible;display:inline;overflow:visible" id="path5058" d="m -219.61876,-150.68038 c 0,0 0,478.33079 0,478.33079 142.874166,0.90045 345.40022,-107.16966 345.40014,-239.196175 0,-132.026537 -159.436816,-239.134595 -345.40014,-239.134615 z"/><path id="path5018" d="m -1559.2523,-150.68038 c 0,0 0,478.33079 0,478.33079 -142.8742,0.90045 -345.4002,-107.16966 -345.4002,-239.196175 0,-132.026537 159.4368,-239.134595 345.4002,-239.134615 z" style="opacity:.40206185;color:#000;fill:url(#radialGradient3772);fill-opacity:1;fill-rule:nonzero;stroke:none;stroke-width:1;marker:none;visibility:visible;display:inline;overflow:visible"/></g><path id="path3446" d="m 15.291184,23.42804 -3.005203,6.805903 0,12.285981 3.18198,2.828427 2.916816,-2.828427 0,-12.462757 -3.093593,-6.629127 z" style="color:#000;fill:url(#linearGradient3774);fill-opacity:1;fill-rule:evenodd;stroke:#949494;stroke-width:1;stroke-linecap:butt;stroke-linejoin:miter;stroke-miterlimit:4;stroke-opacity:1;stroke-dasharray:none;stroke-dashoffset:0;marker:none;visibility:visible;display:inline;overflow:visible"/><path style="opacity:.46783627;color:#000;fill:none;stroke:url(#linearGradient3776);stroke-width:.99999976;stroke-linecap:butt;stroke-linejoin:miter;stroke-miterlimit:4;stroke-opacity:1;stroke-dasharray:none;stroke-dashoffset:0;marker:none;visibility:visible;display:inline;overflow:visible" id="path3516" d="m 15.303288,26.430306 -2.005223,4.41126 0,11.04807 2.133576,2.053647 1.941047,-2.053647 0,-11.176423 -2.0694,-4.282907 z"/><path id="path3444" d="m 20.506096,23.251263 c 0,1.073941 -1.048679,1.944543 -2.342291,1.944543 -1.293612,0 -2.342291,-0.870602 -2.342291,-1.944543 0,-1.073942 1.048679,-1.944544 2.342291,-1.944544 1.293612,0 2.342291,0.870602 2.342291,1.944544 z" transform="translate(-3.005208,1.767768)" style="color:#000;fill:url(#radialGradient3778);fill-opacity:1;fill-rule:evenodd;stroke:#949494;stroke-width:1;stroke-linecap:butt;stroke-linejoin:miter;stroke-miterlimit:4;stroke-opacity:1;stroke-dasharray:none;stroke-dashoffset:0;marker:none;visibility:visible;display:inline;overflow:visible"/><path id="path3440" d="m 14.937632,23.251265 -5.0381373,3.800699 c 0,0 -1.856155,-5.566889 -1.856155,-8.04334 10e-7,-2.474874 1.325826,-3.447145 2.7400403,-3.447145 0,0 8.396893,0 8.396893,0 0.956577,0 2.629553,0.397747 2.828427,3.270369 0.198874,2.872621 -2.032932,8.220116 -2.032932,8.220116 l -5.038136,-3.800699 z" style="color:#000;fill:url(#radialGradient3780);fill-opacity:1;fill-rule:evenodd;stroke:#949494;stroke-width:1;stroke-linecap:butt;stroke-linejoin:miter;stroke-miterlimit:4;stroke-opacity:1;stroke-dasharray:none;stroke-dashoffset:0;marker:none;visibility:visible;display:inline;overflow:visible"/><path id="path3442" d="m 11.795503,17.94796 c 0,0 -1.8156453,0.487978 -1.495237,1.659123 0.320408,1.171146 2.776868,3.025459 2.776868,3.025459 l 4.592511,0 c 0,0 2.10935,-1.561527 2.349657,-2.732672 0.240306,-1.171146 -1.388434,-1.95191 -1.388434,-1.95191 l -6.835365,0 z" style="color:#000;fill:#fff;fill-opacity:1;fill-rule:evenodd;stroke:none;stroke-width:1;marker:none;visibility:visible;display:inline;overflow:visible"/><path style="color:#000;fill:url(#radialGradient3782);fill-opacity:1;fill-rule:evenodd;stroke:none;stroke-width:1;marker:none;visibility:visible;display:inline;overflow:visible" id="path3556" d="m 11.618727,16.975692 c 0,0 -1.8156453,0.487978 -1.495237,1.659123 0.320407,1.171146 2.776868,3.025459 2.776868,3.025459 l 4.592511,0 c 0,0 2.10935,-1.561527 2.349657,-2.732672 0.240306,-1.171146 -1.388434,-1.95191 -1.388434,-1.95191 l -6.835365,0 z"/><path style="color:#000;fill:url(#linearGradient3784);fill-opacity:1;fill-rule:evenodd;stroke:#949494;stroke-width:1.00000012;stroke-linecap:butt;stroke-linejoin:miter;stroke-miterlimit:4;stroke-opacity:1;stroke-dashoffset:0;marker:none;visibility:visible;display:inline;overflow:visible" id="path3580" d="m 13.086385,18.12474 3.702495,0 c 4.286457,0 9.54711,1.317516 9.54711,1.856155 l 0,22.627416 c 0,0.538639 -0.436877,0.972272 -0.979546,0.972272 l -20.8376227,0 c -0.5426681,0 -0.9795465,-0.433633 -0.9795465,-0.972272 l 0,-22.627416 c 0,-0.538639 5.1716789,-1.856155 9.5471102,-1.856155 z"/><path id="path3582" d="m 13.243834,18.986251 3.387609,0 c 3.921907,0 8.735157,1.521517 8.735157,1.521517 l 0,22.069521 c 0,0 -20.8579228,0 -20.8579228,0 l 0,-22.069521 c 0,0 4.7318435,-1.521517 8.7351568,-1.521517 z" style="opacity:.61988304;color:#000;fill:none;stroke:#fff;stroke-width:1;stroke-linecap:butt;stroke-linejoin:round;stroke-miterlimit:4;stroke-opacity:1;stroke-dasharray:none;stroke-dashoffset:0;marker:none;visibility:visible;display:inline;overflow:visible"/><path style="color:#000;fill:url(#linearGradient3786);fill-opacity:1;fill-rule:evenodd;stroke:#2e3436;stroke-width:1;stroke-linecap:butt;stroke-linejoin:miter;stroke-miterlimit:4;stroke-opacity:1;stroke-dasharray:none;stroke-dashoffset:0;marker:none;visibility:visible;display:inline;overflow:visible" id="path3584" d="m 15.291184,23.42804 c 0,0 -3.005203,4.417781 -3.005203,6.805903 l 0,12.285981 3.18198,2.828427 2.916816,-2.828427 0,-12.462757 c 0,-2 -3.093593,-6.629127 -3.093593,-6.629127 z"/><path id="path3586" d="m 15.303288,26.430306 -2.005223,4.41126 0,11.04807 2.133576,2.053647 1.941047,-2.053647 0,-11.176423 -2.0694,-4.282907 z" style="opacity:.46783627;color:#000;fill:none;stroke:url(#linearGradient3788);stroke-width:.99999976;stroke-linecap:butt;stroke-linejoin:miter;stroke-miterlimit:4;stroke-opacity:1;stroke-dasharray:none;stroke-dashoffset:0;marker:none;visibility:visible;display:inline;overflow:visible"/><path style="color:#000;fill:url(#radialGradient3790);fill-opacity:1;fill-rule:evenodd;stroke:#2e3436;stroke-width:1;stroke-linecap:butt;stroke-linejoin:miter;stroke-miterlimit:4;stroke-opacity:1;stroke-dasharray:none;stroke-dashoffset:0;marker:none;visibility:visible;display:inline;overflow:visible" id="path3588" d="m 20.506096,23.251263 c 0,1.073941 -1.048679,1.944543 -2.342291,1.944543 -1.293612,0 -2.342291,-0.870602 -2.342291,-1.944543 0,-1.073942 1.048679,-1.944544 2.342291,-1.944544 1.293612,0 2.342291,0.870602 2.342291,1.944544 z" transform="translate(-3.005208,1.767768)"/><path style="color:#000;fill:url(#radialGradient3792);fill-opacity:1;fill-rule:evenodd;stroke:#949494;stroke-width:1;stroke-linecap:butt;stroke-linejoin:miter;stroke-miterlimit:4;stroke-opacity:1;stroke-dasharray:none;stroke-dashoffset:0;marker:none;visibility:visible;display:inline;overflow:visible" id="path3590" d="m 14.937632,23.251265 -5.0381373,3.800699 c 0,0 -1.856155,-5.566889 -1.856155,-8.04334 10e-7,-2.474874 1.325826,-3.447145 2.7400403,-3.447145 0,0 8.396893,0 8.396893,0 0.956577,0 2.629553,0.397747 2.828427,3.270369 0.198874,2.872621 -2.032932,8.220116 -2.032932,8.220116 l -5.038136,-3.800699 z"/><path style="color:#000;fill:#fff;fill-opacity:1;fill-rule:evenodd;stroke:none;stroke-width:1;marker:none;visibility:visible;display:inline;overflow:visible" id="path3592" d="m 11.795503,17.94796 c 0,0 -1.8156453,0.487978 -1.495237,1.659123 0.320408,1.171146 1.707041,3.025459 2.776868,3.025459 l 4.592511,0 c 0.87723,0 2.10935,-1.561527 2.349657,-2.732672 0.240306,-1.171146 -1.388434,-1.95191 -1.388434,-1.95191 l -6.835365,0 z"/><path id="path3594" d="m 11.618727,16.975692 c 0,0 -1.8156453,0.487978 -1.495237,1.659123 0.320407,1.171146 1.651868,3.025459 2.776868,3.025459 l 4.592511,0 c 0.75,0 2.10935,-1.561527 2.349657,-2.732672 0.240306,-1.171146 -1.388434,-1.95191 -1.388434,-1.95191 l -6.835365,0 z" style="color:#000;fill:url(#radialGradient3794);fill-opacity:1;fill-rule:evenodd;stroke:none;stroke-width:1;marker:none;visibility:visible;display:inline;overflow:visible"/><path id="path4604" d="m 14.937632,22.720934 4.684583,3.535534 1.237436,-3.447145 -1.502601,2.474873 -4.419418,-2.563262 z" style="opacity:.61988304;color:#000;fill:#fff;fill-opacity:1;fill-rule:evenodd;stroke:none;stroke-width:1;marker:none;visibility:visible;display:inline;overflow:visible"/><path style="opacity:.61988304;color:#000;fill:#fff;fill-opacity:1;fill-rule:evenodd;stroke:none;stroke-width:1;marker:none;visibility:visible;display:inline;overflow:visible" id="path4607" d="m 14.584078,22.897711 -4.419419,3.358757 -1.5026013,-6.629125 2.0329323,5.391688 3.889088,-2.12132 z"/></g><g style="display:inline" id="g3188" transform="matrix(0.60580224,0,0,0.60580224,91.088135,-14.758271)"><path style="color:#000;fill:url(#radialGradient3196);fill-opacity:1;fill-rule:evenodd;stroke:none;stroke-width:.50000042;marker:none;visibility:visible;display:inline;overflow:visible" id="path1538" d="m 44.285715,38.714287 c 0,5.43296 -8.922325,9.837245 -19.928572,9.837245 -11.006246,0 -19.9285713,-4.404285 -19.9285713,-9.837245 0,-5.432961 8.9223253,-9.837245 19.9285713,-9.837245 11.006247,0 19.928572,4.404284 19.928572,9.837245 z" transform="matrix(1.18638,0,0,1.18638,-124.39683,44.364813)"/><path id="path53304" d="m -95.57134,95.355849 -19.91061,-19.910614 19.91061,-19.910615 19.910614,19.910615 -19.910614,19.910614 0,0 z" style="fill:url(#linearGradient3198);fill-rule:nonzero;stroke:#3f4561;stroke-width:1;stroke-linecap:round;stroke-linejoin:round;stroke-miterlimit:4;stroke-opacity:1"/><path id="path53359" d="m -76.352079,75.445235 -19.219261,-19.219262 -19.21926,19.219262 0.78107,0.624932 18.609629,-18.428133 19.048016,17.803201 -1.94e-4,0 z" style="opacity:.72000002;fill:#fff;fill-rule:nonzero;stroke:none"/><path id="path53361" d="m -110.93137,79.304663 0.73845,-1.024184 c 0.63675,0.268492 1.30062,0.485069 1.98619,0.644885 l -0.006,1.576858 c 0.42772,0.08834 0.86301,0.156136 1.3041,0.204371 l 0.48177,-1.501889 c 0.34405,0.02848 0.69177,0.04417 1.04337,0.04417 0.3512,0 0.69912,-0.0155 1.04316,-0.04417 l 0.48178,1.501889 c 0.44128,-0.04823 0.87637,-0.116036 1.3041,-0.204371 l -0.006,-1.577051 c 0.68576,-0.159623 1.34943,-0.3762 1.98618,-0.644692 l 0.922482,1.279502 c 0.402351,-0.182094 0.794241,-0.382591 1.174895,-0.600522 l -0.492817,-1.498016 c 0.59723,-0.36225 1.161723,-0.773319 1.687471,-1.227972 l 1.272141,0.931779 c 0.325638,-0.296581 0.637329,-0.608272 0.933716,-0.93391 l -0.931585,-1.271947 c 0.454847,-0.525748 0.865916,-1.090047 1.228166,-1.687665 l 1.498015,0.493011 c 0.217915,-0.380848 0.418606,-0.772932 0.600312,-1.175088 l -1.279308,-0.922287 c 0.268492,-0.636749 0.485068,-1.300618 0.645079,-1.986376 l 1.576663,0.0058 c 0.08834,-0.427727 0.156137,-0.86301 0.204178,-1.304298 l -1.501695,-0.481774 c 0.02886,-0.343848 0.04417,-0.691764 0.04417,-1.043167 0,-0.351403 -0.01569,-0.699125 -0.04417,-1.043361 l 1.501695,-0.481774 c -0.04785,-0.441083 -0.116037,-0.876172 -0.203984,-1.304093 l -1.577051,0.006 c -0.159817,-0.685754 -0.376393,-1.349622 -0.644691,-1.986176 l 1.279308,-0.922289 c -0.181707,-0.402351 -0.382591,-0.794241 -0.600135,-1.175089 l -1.498209,0.493011 c -0.362251,-0.597424 -0.773319,-1.161723 -1.227973,-1.687277 l 0.931586,-1.272141 c -0.278372,-0.30588 -0.571078,-0.598005 -0.875408,-0.87812 l -18.838991,18.839189 1.00694,1.006942 0.29871,-0.218706 c 0.52575,0.454653 1.09005,0.865722 1.68747,1.227972 l -0.24195,0.735157 1.10806,1.108062 -3.9e-4,-1.93e-4 z" style="opacity:.5;fill:#fff;fill-rule:nonzero;stroke:none"/><path id="path53363" d="m -91.408165,84.350607 c 0,-6.484682 4.233883,-11.979469 10.08724,-13.874023 l -2.226972,-2.227167 c -0.01685,0.007 -0.0339,0.01298 -0.05056,0.02015 l -0.181513,-0.251832 -1.412004,-1.412004 c -0.463178,0.2189 -0.91667,0.45446 -1.359314,0.707648 l 0.694089,2.109193 c -0.841314,0.509669 -1.635748,1.08869 -2.375747,1.728732 l -1.79111,-1.311659 c -0.458721,0.41746 -0.897297,0.856036 -1.314564,1.314565 l 1.311465,1.790914 c -0.640041,0.740195 -1.218868,1.534628 -1.728731,2.375748 l -2.109387,-0.694089 c -0.306654,0.536403 -0.589093,1.088304 -0.844994,1.654732 l 1.801182,1.298293 c -0.377942,0.896329 -0.682852,1.831014 -0.907758,2.796501 l -2.219999,-0.0085 c -0.124172,0.602266 -0.219869,1.215188 -0.287476,1.836051 l 2.114423,0.678398 c -0.04029,0.484293 -0.06199,0.97401 -0.06199,1.46857 0,0.494753 0.0217,0.98447 0.06199,1.468763 l -2.114423,0.677816 c 0.06761,0.621251 0.163304,1.233979 0.28767,1.836245 l 2.219805,-0.0083 c 0.224906,0.965487 0.529816,1.900172 0.907758,2.796502 l -1.801182,1.298486 c 0.142382,0.31479 0.293869,0.624931 0.452136,0.930423 l 3.804023,-3.803636 c -0.61602,-1.614245 -0.95425,-3.365836 -0.95425,-5.196269 l 1.93e-4,-1.94e-4 z" style="opacity:.5;fill:#fff;fill-rule:nonzero;stroke:none"/><path id="path53365" d="m -114.65209,75.583743 19.08075,19.080753 19.219261,-19.219261 -0.715099,-0.682219 -18.479649,18.438152 -19.105263,-17.617618 0,1.93e-4 z" style="opacity:.35;fill:#000;fill-rule:nonzero;stroke:none"/></g></g></svg>