<svg xmlns="http://www.w3.org/2000/svg" xmlns:svg="http://www.w3.org/2000/svg" xmlns:xlink="http://www.w3.org/1999/xlink" id="svg2" width="110" height="25" version="1.1"><defs id="defs4"><linearGradient id="linearGradient3697"><stop style="stop-color:#33a;stop-opacity:1" id="stop3699" offset="0"/><stop style="stop-color:#33a;stop-opacity:0" id="stop3701" offset="1"/></linearGradient><linearGradient id="linearGradient2852" x1="27.366" x2="31.336" y1="26.58" y2="30.558" gradientUnits="userSpaceOnUse" xlink:href="#linearGradient2846"/><radialGradient id="radialGradient2842" cx="24.13" cy="37.968" r="16.529" fx="24.13" fy="37.968" gradientTransform="matrix(1,0,0,0.237968,0,28.93278)" gradientUnits="userSpaceOnUse" xlink:href="#linearGradient4477"/><linearGradient id="linearGradient2372" x1="18.293" x2="17.501" y1="13.602" y2="25.743" gradientUnits="userSpaceOnUse" xlink:href="#linearGradient2366"/><radialGradient id="radialGradient4493" cx="24.13" cy="37.968" r="16.529" fx="24.13" fy="37.968" gradientTransform="matrix(1,0,0,0.237968,0,28.93278)" gradientUnits="userSpaceOnUse" xlink:href="#linearGradient4487"/><radialGradient id="radialGradient4473" cx="15.414" cy="13.078" r="6.656" fx="15.414" fy="13.078" gradientTransform="matrix(2.592963,0,0,2.252104,-25.05975,-18.941)" gradientUnits="userSpaceOnUse" xlink:href="#linearGradient4467"/><radialGradient id="radialGradient4460" cx="18.241" cy="21.818" r="8.309" fx="18.241" fy="21.818" gradientUnits="userSpaceOnUse" xlink:href="#linearGradient4454"/><linearGradient id="linearGradient4446" x1="30.656" x2="33.219" y1="34" y2="31.063" gradientTransform="matrix(1.334593,0,0,1.291292,-6.973842,-7.460658)" gradientUnits="userSpaceOnUse" xlink:href="#linearGradient4440"/><linearGradient id="linearGradient4440"><stop id="stop4442" offset="0" style="stop-color:#7d7d7d;stop-opacity:1"/><stop style="stop-color:#b1b1b1;stop-opacity:1" id="stop4448" offset=".5"/><stop id="stop4444" offset="1" style="stop-color:#686868;stop-opacity:1"/></linearGradient><linearGradient id="linearGradient4454"><stop id="stop4456" offset="0" style="stop-color:#729fcf;stop-opacity:.20784314"/><stop id="stop4458" offset="1" style="stop-color:#729fcf;stop-opacity:.6761905"/></linearGradient><linearGradient id="linearGradient4467"><stop id="stop4469" offset="0" style="stop-color:#fff;stop-opacity:1"/><stop id="stop4471" offset="1" style="stop-color:#fff;stop-opacity:.24761905"/></linearGradient><linearGradient id="linearGradient4477"><stop id="stop4479" offset="0" style="stop-color:#000;stop-opacity:1"/><stop id="stop4481" offset="1" style="stop-color:#000;stop-opacity:0"/></linearGradient><linearGradient id="linearGradient4487"><stop id="stop4489" offset="0" style="stop-color:#fff;stop-opacity:1"/><stop id="stop4491" offset="1" style="stop-color:#fff;stop-opacity:0"/></linearGradient><linearGradient id="linearGradient2366"><stop style="stop-color:#fff;stop-opacity:1" id="stop2368" offset="0"/><stop id="stop2374" offset=".5" style="stop-color:#fff;stop-opacity:.21904762"/><stop style="stop-color:#fff;stop-opacity:1" id="stop2370" offset="1"/></linearGradient><linearGradient id="linearGradient2846"><stop style="stop-color:#8a8a8a;stop-opacity:1" id="stop2848" offset="0"/><stop style="stop-color:#484848;stop-opacity:1" id="stop2850" offset="1"/></linearGradient><radialGradient id="radialGradient1372" cx="17.368" cy="25.682" r="11.8" fx="17.368" fy="25.682" gradientTransform="matrix(1.945734,0.000000,0.000000,0.627274,-9.628455,24.25921)" gradientUnits="userSpaceOnUse" xlink:href="#linearGradient4808"/><radialGradient id="radialGradient1365" cx="55" cy="125" r="14.375" fx="55" fy="125" gradientTransform="matrix(0.626087,0,0,0.637205,34.208075,-97.596163)" gradientUnits="userSpaceOnUse" xlink:href="#linearGradient12512"/><linearGradient id="linearGradient3832"><stop id="stop3834" offset="0" style="stop-color:#fff;stop-opacity:1"/><stop id="stop3836" offset="1" style="stop-color:#e0e0e0;stop-opacity:1"/></linearGradient><linearGradient id="linearGradient4808"><stop id="stop4810" offset="0" style="stop-color:#000;stop-opacity:1"/><stop id="stop4812" offset="1" style="stop-color:#000;stop-opacity:0"/></linearGradient><linearGradient id="linearGradient4816"><stop id="stop4818" offset="0" style="stop-color:#204a87;stop-opacity:1"/><stop id="stop4820" offset="1" style="stop-color:#204a87;stop-opacity:0"/></linearGradient><linearGradient id="linearGradient12512"><stop id="stop12513" offset="0" style="stop-color:#fff;stop-opacity:1"/><stop id="stop12517" offset=".5" style="stop-color:#fff520;stop-opacity:.89108908"/><stop id="stop12514" offset="1" style="stop-color:#fff300;stop-opacity:0"/></linearGradient><linearGradient id="linearGradient5048"><stop id="stop5050" offset="0" style="stop-color:black;stop-opacity:0"/><stop style="stop-color:black;stop-opacity:1" id="stop5056" offset=".5"/><stop id="stop5052" offset="1" style="stop-color:black;stop-opacity:0"/></linearGradient><filter id="filter3663" width="1.041" height="1.275" x="-.021" y="-.138"><feGaussianBlur id="feGaussianBlur3665" stdDeviation=".71"/></filter></defs><metadata id="metadata7"/><g id="layer1" transform="translate(-104.88694,-283.86325)"><text id="text2879" x="129.214" y="302.541" xml:space="preserve" style="font-size:14px;font-style:normal;font-variant:normal;font-weight:400;font-stretch:normal;text-align:start;line-height:100%;writing-mode:lr-tb;text-anchor:start;fill:#646464;fill-opacity:1;stroke:none;filter:url(#filter3663);font-family:'美咲ゴシック';-inkscape-font-specification:'美咲ゴシック'"><tspan id="tspan2881" x="129.214" y="302.541">るりまサーチ</tspan></text><text style="font-size:14px;font-style:normal;font-variant:normal;font-weight:400;font-stretch:normal;text-align:start;line-height:100%;writing-mode:lr-tb;text-anchor:start;fill:#000;fill-opacity:1;stroke:none;font-family:'美咲ゴシック';-inkscape-font-specification:'美咲ゴシック'" id="text3603" x="128.286" y="301.791" xml:space="preserve"><tspan id="tspan3605" x="128.286" y="301.791">るりまサーチ</tspan></text><g id="layer1-8" transform="matrix(0.46956946,0,0,0.46956946,107.16894,285.29229)"><g id="g1772"><path id="path4475" d="m 40.65864,37.967922 c 0,2.172292 -7.400116,3.933282 -16.528622,3.933282 -9.128505,0 -16.5286214,-1.76099 -16.5286214,-3.933282 0,-2.172291 7.4001164,-3.933281 16.5286214,-3.933281 9.128506,0 16.528622,1.76099 16.528622,3.933281 z" transform="matrix(1.446431,0,0,1.51999,-10.97453,-17.75168)" style="opacity:.17112301;color:#000;fill:url(#radialGradient2842);fill-opacity:1;fill-rule:evenodd;stroke:none;stroke-width:1;marker:none;visibility:visible;display:inline;overflow:visible"/><path style="color:#000;fill:#dcdcdc;fill-opacity:1;fill-rule:evenodd;stroke:url(#linearGradient2852);stroke-width:2.00000095;stroke-linecap:round;stroke-linejoin:miter;stroke-miterlimit:10;stroke-opacity:1;stroke-dasharray:none;stroke-dashoffset:0;marker:none;visibility:visible;display:inline;overflow:visible" id="path2844" d="m 18.627569,3.1435548 c -8.13913,0 -14.7448008,6.6056711 -14.7448008,14.7448012 0,8.13913 6.6056708,14.744802 14.7448008,14.744802 3.479555,0 6.551001,-1.384393 9.073723,-3.402647 -0.205377,1.006881 -0.07803,2.035368 0.756144,2.759925 l 10.964084,9.52741 c 1.233416,1.071329 3.087462,0.93096 4.15879,-0.302457 1.071328,-1.233418 0.930959,-3.087462 -0.302457,-4.15879 L 32.313769,27.529188 c -0.671527,-0.583279 -1.492878,-0.755969 -2.306238,-0.642722 1.9867,-2.512422 3.364839,-5.548803 3.364839,-8.99811 0,-8.1391301 -6.605671,-14.7448012 -14.744801,-14.7448012 z m -0.07562,1.2261833 c 7.639459,0 13.291775,4.7889505 13.291775,13.2917749 0,8.675113 -5.81669,13.291775 -13.291775,13.291775 -7.302949,0 -13.2917734,-5.478092 -13.2917734,-13.291775 0,-7.9841069 5.8246384,-13.291775 13.2917734,-13.2917749 z"/><path id="path4430" d="m 18.602905,3.0803551 c -8.16544,0 -14.7924642,6.627024 -14.7924642,14.7924639 0,8.16544 6.6270242,14.792464 14.7924642,14.792464 3.490803,0 6.572177,-1.388867 9.103055,-3.413645 -0.206041,1.010136 -0.07829,2.041947 0.758587,2.768846 l 10.999526,9.558207 c 1.237403,1.074792 3.097442,0.93397 4.172233,-0.303435 1.074791,-1.237404 0.933968,-3.097442 -0.303435,-4.172233 L 32.333346,27.544815 c -0.673698,-0.585164 -1.497704,-0.758413 -2.313693,-0.644799 1.993122,-2.520544 3.375716,-5.56674 3.375716,-9.027197 0,-8.1654399 -6.627024,-14.7924639 -14.792464,-14.7924639 z m -0.07586,3.1860692 c 6.281108,2e-7 11.378818,5.0977107 11.378818,11.3788187 0,6.281108 -5.09771,11.378818 -11.378818,11.378818 -6.281108,0 -11.3788184,-5.09771 -11.3788184,-11.378818 2e-7,-6.281108 5.0977104,-11.3788187 11.3788184,-11.3788187 z" style="color:#000;fill:#dcdcdc;fill-opacity:1;fill-rule:evenodd;stroke:none;stroke-width:1.00000036;marker:none;visibility:visible;display:inline;overflow:visible"/><path id="path4438" d="m 39.507004,41.57769 c -0.478672,-2.273187 1.39733,-4.811422 3.584053,-4.788375 0,0 -10.760367,-9.258111 -10.760367,-9.258111 -2.944791,-0.05671 -4.269502,2.272616 -3.776814,4.599922 l 10.953128,9.446564 z" style="color:#000;fill:url(#linearGradient4446);fill-opacity:1;fill-rule:evenodd;stroke:none;stroke-width:1;marker:none;visibility:visible;display:inline;overflow:visible"/><path id="path4450" d="m 28.549437,18.920233 c 0,6.101942 -4.946602,11.048544 -11.048544,11.048544 -6.101943,0 -11.0485443,-4.946602 -11.0485443,-11.048544 0,-6.101943 4.9466013,-11.0485442 11.0485443,-11.0485442 6.101942,0 11.048544,4.9466012 11.048544,11.0485442 z" transform="matrix(1.245743,0,0,1.245743,-3.425346,-6.177033)" style="color:#000;fill:none;stroke:url(#linearGradient2372);stroke-width:.8027336;stroke-linecap:round;stroke-linejoin:miter;stroke-miterlimit:10;stroke-opacity:1;stroke-dasharray:none;stroke-dashoffset:0;marker:none;visibility:visible;display:inline;overflow:visible"/><path style="color:#000;fill:url(#radialGradient4493);fill-opacity:1;fill-rule:evenodd;stroke:none;stroke-width:1;marker:none;visibility:visible;display:inline;overflow:visible" id="path4485" d="m 40.65864,37.967922 c 0,2.172292 -7.400116,3.933282 -16.528622,3.933282 -9.128505,0 -16.5286214,-1.76099 -16.5286214,-3.933282 0,-2.172291 7.4001164,-3.933281 16.5286214,-3.933281 9.128506,0 16.528622,1.76099 16.528622,3.933281 z" transform="matrix(0.497764,0,0,0.609621,8.973526,15.61929)"/><rect id="rect4495" width="19.048" height="4.44" x="40.373" y=".141" rx="2.137" ry="1.888" transform="matrix(0.752986,0.658037,-0.648902,0.760872,0,0)" style="opacity:.43315507;color:#000;fill:none;stroke:#fff;stroke-width:1.00003111;stroke-linecap:round;stroke-linejoin:miter;stroke-miterlimit:10;stroke-opacity:1;stroke-dasharray:none;stroke-dashoffset:0;marker:none;visibility:visible;display:inline;overflow:visible"/><path id="path4452" d="m 25.897786,18.478292 c 0,4.588661 -3.719844,8.308506 -8.308505,8.308506 -4.588661,0 -8.308505,-3.719845 -8.308505,-8.308506 0,-4.58866 3.719844,-8.308505 8.308505,-8.308505 4.588661,0 8.308505,3.719845 8.308505,8.308505 z" transform="matrix(1.398614,0,0,1.398614,-6.224338,-8.298958)" style="color:#000;fill:url(#radialGradient4460);fill-opacity:1;fill-rule:evenodd;stroke:#3063a3;stroke-width:.71499395;stroke-linecap:round;stroke-linejoin:miter;stroke-miterlimit:10;stroke-opacity:1;stroke-dashoffset:0;marker:none;visibility:visible"/><path id="path4462" d="m 18.156915,7.3966938 c -5.20759,0 -9.4245469,4.2169572 -9.4245469,9.4245472 0,1.503975 0.4203072,2.887773 1.0471719,4.149903 1.25238,0.461613 2.582757,0.775683 3.994767,0.775683 6.170955,0 11.099282,-4.861637 11.480106,-10.937129 C 23.523449,8.7641668 21.044374,7.3966938 18.156915,7.3966938 z" style="opacity:.83422457;color:#000;fill:url(#radialGradient4473);fill-opacity:1;fill-rule:evenodd;stroke:none;stroke-width:1;marker:none;visibility:visible;display:inline;overflow:visible"/></g></g></g></svg>