<svg xmlns="http://www.w3.org/2000/svg" xmlns:svg="http://www.w3.org/2000/svg" xmlns:xlink="http://www.w3.org/1999/xlink" id="svg2" width="16" height="16" version="1.1"><defs id="defs4"><linearGradient id="linearGradient5048"><stop style="stop-color:black;stop-opacity:0" id="stop5050" offset="0"/><stop id="stop5056" offset=".5" style="stop-color:black;stop-opacity:1"/><stop style="stop-color:black;stop-opacity:0" id="stop5052" offset="1"/></linearGradient><linearGradient id="linearGradient12512"><stop style="stop-color:#fff;stop-opacity:1" id="stop12513" offset="0"/><stop style="stop-color:#fff520;stop-opacity:.89108908" id="stop12517" offset=".5"/><stop style="stop-color:#fff300;stop-opacity:0" id="stop12514" offset="1"/></linearGradient><linearGradient id="linearGradient4816"><stop style="stop-color:#204a87;stop-opacity:1" id="stop4818" offset="0"/><stop style="stop-color:#204a87;stop-opacity:0" id="stop4820" offset="1"/></linearGradient><linearGradient id="linearGradient4808"><stop style="stop-color:#000;stop-opacity:1" id="stop4810" offset="0"/><stop style="stop-color:#000;stop-opacity:0" id="stop4812" offset="1"/></linearGradient><linearGradient id="linearGradient3832"><stop style="stop-color:#fff;stop-opacity:1" id="stop3834" offset="0"/><stop style="stop-color:#e0e0e0;stop-opacity:1" id="stop3836" offset="1"/></linearGradient><radialGradient id="radialGradient1365" cx="55" cy="125" r="14.375" fx="55" fy="125" gradientTransform="matrix(0.626087,0,0,0.637205,34.208075,-97.596163)" gradientUnits="userSpaceOnUse" xlink:href="#linearGradient12512"/><radialGradient id="radialGradient1372" cx="17.368" cy="25.682" r="11.8" fx="17.368" fy="25.682" gradientTransform="matrix(1.945734,0,0,0.627274,-9.628455,24.25921)" gradientUnits="userSpaceOnUse" xlink:href="#linearGradient4808"/><linearGradient id="linearGradient2846"><stop id="stop2848" offset="0" style="stop-color:#8a8a8a;stop-opacity:1"/><stop id="stop2850" offset="1" style="stop-color:#484848;stop-opacity:1"/></linearGradient><linearGradient id="linearGradient2366"><stop id="stop2368" offset="0" style="stop-color:#fff;stop-opacity:1"/><stop style="stop-color:#fff;stop-opacity:.21904762" id="stop2374" offset=".5"/><stop id="stop2370" offset="1" style="stop-color:#fff;stop-opacity:1"/></linearGradient><linearGradient id="linearGradient4487"><stop style="stop-color:#fff;stop-opacity:1" id="stop4489" offset="0"/><stop style="stop-color:#fff;stop-opacity:0" id="stop4491" offset="1"/></linearGradient><linearGradient id="linearGradient4477"><stop style="stop-color:#000;stop-opacity:1" id="stop4479" offset="0"/><stop style="stop-color:#000;stop-opacity:0" id="stop4481" offset="1"/></linearGradient><linearGradient id="linearGradient4467"><stop style="stop-color:#fff;stop-opacity:1" id="stop4469" offset="0"/><stop style="stop-color:#fff;stop-opacity:.24761905" id="stop4471" offset="1"/></linearGradient><linearGradient id="linearGradient4454"><stop style="stop-color:#729fcf;stop-opacity:.20784314" id="stop4456" offset="0"/><stop style="stop-color:#729fcf;stop-opacity:.6761905" id="stop4458" offset="1"/></linearGradient><linearGradient id="linearGradient4440"><stop style="stop-color:#7d7d7d;stop-opacity:1" id="stop4442" offset="0"/><stop id="stop4448" offset=".5" style="stop-color:#b1b1b1;stop-opacity:1"/><stop style="stop-color:#686868;stop-opacity:1" id="stop4444" offset="1"/></linearGradient><linearGradient id="linearGradient4446" x1="30.656" x2="33.219" y1="34" y2="31.063" gradientTransform="matrix(1.334593,0,0,1.291292,-6.973842,-7.460658)" gradientUnits="userSpaceOnUse" xlink:href="#linearGradient4440"/><radialGradient id="radialGradient4460" cx="18.241" cy="21.818" r="8.309" fx="18.241" fy="21.818" gradientUnits="userSpaceOnUse" xlink:href="#linearGradient4454"/><radialGradient id="radialGradient4473" cx="15.414" cy="13.078" r="6.656" fx="15.414" fy="13.078" gradientTransform="matrix(2.592963,0,0,2.252104,-25.05975,-18.941)" gradientUnits="userSpaceOnUse" xlink:href="#linearGradient4467"/><radialGradient id="radialGradient4493" cx="24.13" cy="37.968" r="16.529" fx="24.13" fy="37.968" gradientTransform="matrix(1,0,0,0.237968,0,28.93278)" gradientUnits="userSpaceOnUse" xlink:href="#linearGradient4487"/><linearGradient id="linearGradient2372" x1="18.293" x2="17.501" y1="13.602" y2="25.743" gradientUnits="userSpaceOnUse" xlink:href="#linearGradient2366"/><radialGradient id="radialGradient2842" cx="24.13" cy="37.968" r="16.529" fx="24.13" fy="37.968" gradientTransform="matrix(1,0,0,0.237968,0,28.93278)" gradientUnits="userSpaceOnUse" xlink:href="#linearGradient4477"/><linearGradient id="linearGradient2852" x1="27.366" x2="31.336" y1="26.58" y2="30.558" gradientUnits="userSpaceOnUse" xlink:href="#linearGradient2846"/><linearGradient id="linearGradient3697"><stop id="stop3699" offset="0" style="stop-color:#33a;stop-opacity:1"/><stop id="stop3701" offset="1" style="stop-color:#33a;stop-opacity:0"/></linearGradient><linearGradient id="XMLID_1_" x1="114.011" x2="114.011" y1="6.296" y2="159.067" gradientUnits="userSpaceOnUse"><stop style="stop-color:#a30c00" id="stop2978" offset="0"/><stop style="stop-color:#a30c00" id="stop2980" offset=".064"/><stop style="stop-color:#a30c00" id="stop2982" offset=".449"/><stop style="stop-color:#ff4100" id="stop2984" offset="1"/></linearGradient><linearGradient id="linearGradient3970" x1="124.014" x2="100.082" y1="187.85" y2="145.596" gradientUnits="userSpaceOnUse" xlink:href="#XMLID_4_"/><linearGradient id="linearGradient3972" x1="135.938" x2="105.095" y1="152.353" y2="131.656" gradientUnits="userSpaceOnUse" xlink:href="#XMLID_5_"/><linearGradient id="linearGradient3974" x1="111.26" x2="80.417" y1="189.129" y2="168.431" gradientUnits="userSpaceOnUse" xlink:href="#XMLID_6_"/><linearGradient id="linearGradient3976" x1="46.499" x2="51.281" y1="137.371" y2="168.446" gradientUnits="userSpaceOnUse" xlink:href="#XMLID_7_"/><linearGradient id="linearGradient3978" x1="92.47" x2="115.197" y1="71.039" y2="59.675" gradientUnits="userSpaceOnUse" xlink:href="#XMLID_8_"/><linearGradient id="linearGradient3980" x1="26.58" x2="28.451" y1="129.449" y2="148.178" gradientUnits="userSpaceOnUse" xlink:href="#XMLID_9_"/><linearGradient id="linearGradient3982" x1="39.616" x2="30.064" y1="177.422" y2="145.017" gradientUnits="userSpaceOnUse" xlink:href="#XMLID_10_"/><linearGradient id="linearGradient3984" x1="112.891" x2="134.302" y1="70.04" y2="79.491" gradientUnits="userSpaceOnUse" xlink:href="#XMLID_11_"/><linearGradient id="linearGradient3986" x1="79.388" x2="81.15" y1="108.356" y2="140.07" gradientUnits="userSpaceOnUse" xlink:href="#XMLID_12_"/><linearGradient id="linearGradient3988" x1="108.572" x2="113.847" y1="79.044" y2="101.773" gradientUnits="userSpaceOnUse" xlink:href="#XMLID_13_"/><linearGradient id="linearGradient3990" x1="81.073" x2="54.586" y1="162.36" y2="155.823" gradientUnits="userSpaceOnUse" xlink:href="#XMLID_14_"/><linearGradient id="linearGradient3992" x1="126.464" x2="103.012" y1="130.481" y2="109.461" gradientUnits="userSpaceOnUse" xlink:href="#XMLID_15_"/><linearGradient id="linearGradient3994" x1="135.188" x2="123.467" y1="91.898" y2="79.369" gradientUnits="userSpaceOnUse" xlink:href="#XMLID_16_"/><radialGradient id="radialGradient3996" cx="106.7" cy="109.885" r="28.831" fx="106.7" fy="109.885" gradientUnits="userSpaceOnUse" xlink:href="#XMLID_17_"/><radialGradient id="radialGradient3998" cx="66.769" cy="147.885" r="38.331" fx="66.769" fy="147.885" gradientUnits="userSpaceOnUse" xlink:href="#XMLID_18_"/><linearGradient id="linearGradient4000" x1="13.721" x2="101.652" y1="153.238" y2="62.82" gradientUnits="userSpaceOnUse" xlink:href="#XMLID_19_"/></defs><metadata id="metadata7"/><g id="layer1" transform="translate(-503.60999,-531.7535)"><g id="layer1-1" transform="translate(346.14979,172.924)"><g id="g2988" transform="matrix(0.07205611,0,0,0.07205611,154.04755,363.36596)"><defs id="defs2990"><path id="XMLID_2_" d="m 180.67,152.014 c 0,4.656 -2.594,7.266 -7.766,7.031 l -117.836,0.042 c -4.533,0.161 -7.721,-3.651 -7.707,-7.618 L 47.363,13.734 c 0,-3.798 2.094,-7.812 6.674,-7.45 l 119.446,0.075 c 3.938,0.016 7.266,3.562 7.178,7.59 l 0.009,138.065 z"/></defs><clipPath id="XMLID_3_"><use id="use2994" width="1" height="1" x="0" y="0" xlink:href="#XMLID_2_"/></clipPath><linearGradient id="XMLID_4_" x1="124.014" x2="100.082" y1="187.85" y2="145.596" gradientUnits="userSpaceOnUse"><stop style="stop-color:#fb7655" id="stop2997" offset="0"/><stop style="stop-color:#fb7655" id="stop2999" offset="0"/><stop style="stop-color:#e42b1e" id="stop3001" offset=".41"/><stop style="stop-color:#900" id="stop3003" offset=".99"/><stop style="stop-color:#900" id="stop3005" offset="1"/></linearGradient><path style="fill:url(#linearGradient3970);fill-rule:evenodd" id="path3007" d="m 47.464,177.564 83.867,-5.695 6.458,-84.563 -25.551,51.794 -64.774,38.464 z" clip-path="url(#XMLID_3_)" clip-rule="evenodd"/><linearGradient id="XMLID_5_" x1="135.938" x2="105.095" y1="152.353" y2="131.656" gradientUnits="userSpaceOnUse"><stop style="stop-color:#871101" id="stop3010" offset="0"/><stop style="stop-color:#871101" id="stop3012" offset="0"/><stop style="stop-color:#911209" id="stop3014" offset=".99"/><stop style="stop-color:#911209" id="stop3016" offset="1"/></linearGradient><path style="fill:url(#linearGradient3972);fill-rule:evenodd" id="path3018" d="m 104.625,147.988 26.843,23.824 -7.208,-49.753 -19.635,25.929 z" clip-path="url(#XMLID_3_)" clip-rule="evenodd"/><linearGradient id="XMLID_6_" x1="111.26" x2="80.417" y1="189.129" y2="168.431" gradientUnits="userSpaceOnUse"><stop style="stop-color:#871101" id="stop3021" offset="0"/><stop style="stop-color:#871101" id="stop3023" offset="0"/><stop style="stop-color:#911209" id="stop3025" offset=".99"/><stop style="stop-color:#911209" id="stop3027" offset="1"/></linearGradient><path style="fill:url(#linearGradient3974);fill-rule:evenodd" id="path3029" d="m 47.746,177.451 83.82,-5.639 -52.808,-4.148 -31.012,9.787 z" clip-path="url(#XMLID_3_)" clip-rule="evenodd"/><linearGradient id="XMLID_7_" x1="46.499" x2="51.281" y1="137.371" y2="168.446" gradientUnits="userSpaceOnUse"><stop style="stop-color:#fff" id="stop3032" offset="0"/><stop style="stop-color:#fff" id="stop3034" offset="0"/><stop style="stop-color:#e57252" id="stop3036" offset=".23"/><stop style="stop-color:#de3b20" id="stop3038" offset=".46"/><stop style="stop-color:#a00000" id="stop3040" offset=".99"/><stop style="stop-color:#a00000" id="stop3042" offset="1"/></linearGradient><path style="fill:url(#linearGradient3976);fill-rule:evenodd" id="path3044" d="m 31.982,140.453 15.838,37.01 13.191,-43.219 -29.029,6.209 z" clip-path="url(#XMLID_3_)" clip-rule="evenodd"/><linearGradient id="XMLID_8_" x1="92.47" x2="115.197" y1="71.039" y2="59.675" gradientUnits="userSpaceOnUse"><stop style="stop-color:#fff" id="stop3047" offset="0"/><stop style="stop-color:#fff" id="stop3049" offset="0"/><stop style="stop-color:#c81f11" id="stop3051" offset=".54"/><stop style="stop-color:#bf0904" id="stop3053" offset=".99"/><stop style="stop-color:#bf0904" id="stop3055" offset="1"/></linearGradient><path style="fill:url(#linearGradient3978);fill-rule:evenodd" id="path3057" d="M 88.183,64.728 119.68,64.87 100.367,75.544 88.183,64.728 z" clip-path="url(#XMLID_3_)" clip-rule="evenodd"/><linearGradient id="XMLID_9_" x1="26.58" x2="28.451" y1="129.449" y2="148.178" gradientUnits="userSpaceOnUse"><stop style="stop-color:#fff" id="stop3060" offset="0"/><stop style="stop-color:#fff" id="stop3062" offset="0"/><stop style="stop-color:#de4024" id="stop3064" offset=".31"/><stop style="stop-color:#bf190b" id="stop3066" offset=".99"/><stop style="stop-color:#bf190b" id="stop3068" offset="1"/></linearGradient><path style="fill:url(#linearGradient3980);fill-rule:evenodd" id="path3070" d="m 25.89,122.616 -1.545,32.335 8.09,-14.758 -6.545,-17.577 z" clip-path="url(#XMLID_3_)" clip-rule="evenodd"/><path style="fill:#9e1209;fill-rule:evenodd" id="path3072" d="M 24.345,154.756 C 24.962,177 41.013,177.332 47.849,177.527 L 32.056,140.644 24.345,154.756 z" clip-path="url(#XMLID_3_)" clip-rule="evenodd"/><linearGradient id="XMLID_10_" x1="39.616" x2="30.064" y1="177.422" y2="145.017" gradientUnits="userSpaceOnUse"><stop style="stop-color:#8b2114" id="stop3075" offset="0"/><stop style="stop-color:#8b2114" id="stop3077" offset="0"/><stop style="stop-color:#9e100a" id="stop3079" offset=".43"/><stop style="stop-color:#b3100c" id="stop3081" offset=".99"/><stop style="stop-color:#b3100c" id="stop3083" offset="1"/></linearGradient><path style="fill:url(#linearGradient3982);fill-rule:evenodd" id="path3085" d="m 31.988,140.691 -2.479,29.525 c 4.678,6.387 11.111,6.943 17.865,6.445 -4.886,-12.153 -14.642,-36.462 -15.386,-35.97 z" clip-path="url(#XMLID_3_)" clip-rule="evenodd"/><linearGradient id="XMLID_11_" x1="112.891" x2="134.302" y1="70.04" y2="79.491" gradientUnits="userSpaceOnUse"><stop style="stop-color:#b31000" id="stop3088" offset="0"/><stop style="stop-color:#b31000" id="stop3090" offset="0"/><stop style="stop-color:#910f08" id="stop3092" offset=".44"/><stop style="stop-color:#791c12" id="stop3094" offset=".99"/><stop style="stop-color:#791c12" id="stop3096" offset="1"/></linearGradient><path style="fill:url(#linearGradient3984);fill-rule:evenodd" id="path3098" d="m 102.16,74.512 34.758,4.881 c -1.854,-7.864 -7.551,-12.938 -17.26,-14.523 l -17.498,9.642 z" clip-path="url(#XMLID_3_)" clip-rule="evenodd"/><g id="g3100"><path style="fill:#fff;fill-rule:evenodd" id="path3102" d="M 62.191,73.878 38.476,94.34 23.833,121.313 22.812,153.746 c -0.312,7.652 1.715,13.676 6.027,17.898 7.223,7.072 18.404,8.004 18.865,7.975 -1.469,0.129 -0.164,0.014 83.092,-6.828 l 7.979,-68.174 c 1.076,-6.979 1.75,-10.359 1.75,-14 0,-5.787 -0.904,-11.367 -1.25,-12 -2.768,-14.094 -18.09,-15.492 -18.248,-15.5 -0.025,-0.002 -36.147,0.209 -36.147,0.209 L 62.191,73.878 z m 25.176,-9.35 c 0.393,0.01 31.237,0.756 31.237,0.756 0.562,0.029 14.43,0.898 16.788,13.633 l 0.033,0.18 0.109,0.18 c 0.016,0.025 0.999,1.768 0.999,7.76 0,3.504 -0.337,8.461 -1.401,15.379 -0.008,0.068 -4.655,59.835 -5.265,67.667 -1.68,0.121 -82.549,6.021 -82.549,6.021 -0.094,0.006 -10.514,0.553 -17.09,-5.898 -3.617,-3.549 -5.445,-8.576 -5.445,-14.959 0,-0.469 0.01,-0.945 0.029,-1.428 0,-0.01 0.93,-29.543 1.006,-31.968 0.223,-0.408 14.109,-25.99 14.262,-26.27 0.232,-0.219 23.037,-21.553 23.316,-21.812 0.355,-0.138 23.609,-9.101 23.971,-9.241 z" clip-path="url(#XMLID_3_)" clip-rule="evenodd"/></g><path style="fill:none;stroke:#fff" id="path3104" d="m 47.466,177.564 83.866,-5.695 6.457,-84.564 -25.551,51.796 -64.772,38.463 z" clip-path="url(#XMLID_3_)" clip-rule="evenodd"/><path style="fill:none;stroke:#fff" id="path3106" d="m 104.623,147.986 26.846,23.826 -7.199,-48.982 -19.647,25.156 z" clip-path="url(#XMLID_3_)" clip-rule="evenodd"/><path style="fill:none;stroke:#fff" id="path3108" d="m 47.746,177.451 83.821,-5.639 -52.809,-4.148 -31.012,9.787 z" clip-path="url(#XMLID_3_)" clip-rule="evenodd"/><path style="fill:none;stroke:#fff" id="path3110" d="m 31.982,140.451 15.838,37.012 13.191,-43.219 -29.029,6.207 z" clip-path="url(#XMLID_3_)" clip-rule="evenodd"/><path style="fill:none;stroke:#fff" id="path3112" d="M 88.183,64.727 119.68,64.87 102.159,74.513 88.183,64.727 z" clip-path="url(#XMLID_3_)" clip-rule="evenodd"/><path style="fill:none;stroke:#fff" id="path3114" d="m 25.455,122.061 -1.109,32.888 8.09,-14.756 -6.981,-18.132 z" clip-path="url(#XMLID_3_)" clip-rule="evenodd"/><path style="fill:none;stroke:#fff" id="path3116" d="m 135.104,101.297 c 4.462,-13.479 5.493,-32.814 -15.562,-36.404 l -17.283,9.545 32.845,26.859 z" clip-path="url(#XMLID_3_)" clip-rule="evenodd"/><path style="fill:none;stroke:#fff" id="path3118" d="m 24.345,154.754 c 0.617,22.246 16.668,22.578 23.504,22.773 l -15.791,-36.883 -7.713,14.11 z" clip-path="url(#XMLID_3_)" clip-rule="evenodd"/><path style="fill:none;stroke:#fff" id="path3120" d="m 31.988,140.691 -2.479,29.525 c 4.678,6.387 11.113,6.943 17.865,6.445 -4.884,-12.153 -14.642,-36.46 -15.386,-35.97 z" clip-path="url(#XMLID_3_)" clip-rule="evenodd"/><linearGradient id="XMLID_12_" x1="79.388" x2="81.15" y1="108.356" y2="140.07" gradientUnits="userSpaceOnUse"><stop style="stop-color:#fff" id="stop3123" offset="0"/><stop style="stop-color:#fff" id="stop3125" offset="0"/><stop style="stop-color:#e4714e" id="stop3127" offset=".23"/><stop style="stop-color:#be1a0d" id="stop3129" offset=".56"/><stop style="stop-color:#a80d00" id="stop3131" offset=".99"/><stop style="stop-color:#a80d00" id="stop3133" offset="1"/></linearGradient><path style="fill:url(#linearGradient3986);fill-rule:evenodd" id="path3135" d="m 57.744,133.146 46.875,14.984 -12.135,-47.547 -34.74,32.563 z" clip-path="url(#XMLID_3_)" clip-rule="evenodd"/><linearGradient id="XMLID_13_" x1="108.572" x2="113.847" y1="79.044" y2="101.773" gradientUnits="userSpaceOnUse"><stop style="stop-color:#fff" id="stop3138" offset="0"/><stop style="stop-color:#fff" id="stop3140" offset="0"/><stop style="stop-color:#e46342" id="stop3142" offset=".18"/><stop style="stop-color:#c82410" id="stop3144" offset=".4"/><stop style="stop-color:#a80d00" id="stop3146" offset=".99"/><stop style="stop-color:#a80d00" id="stop3148" offset="1"/></linearGradient><path style="fill:url(#linearGradient3988);fill-rule:evenodd" id="path3150" d="m 93.054,103.995 41.979,-2.74 -32.838,-26.821 -9.141,29.561 z" clip-path="url(#XMLID_3_)" clip-rule="evenodd"/><linearGradient id="XMLID_14_" x1="81.073" x2="54.586" y1="162.36" y2="155.823" gradientUnits="userSpaceOnUse"><stop style="stop-color:#8c0c01" id="stop3153" offset="0"/><stop style="stop-color:#8c0c01" id="stop3155" offset="0"/><stop style="stop-color:#990c00" id="stop3157" offset=".54"/><stop style="stop-color:#a80d0e" id="stop3159" offset=".99"/><stop style="stop-color:#a80d0e" id="stop3161" offset="1"/></linearGradient><path style="fill:url(#linearGradient3990);fill-rule:evenodd" id="path3163" d="m 47.82,177.447 13.09,-43.357 43.471,13.965 c -15.719,14.738 -33.2,27.199 -56.561,29.392 z" clip-path="url(#XMLID_3_)" clip-rule="evenodd"/><linearGradient id="XMLID_15_" x1="126.464" x2="103.012" y1="130.481" y2="109.461" gradientUnits="userSpaceOnUse"><stop style="stop-color:#7e110b" id="stop3166" offset="0"/><stop style="stop-color:#7e110b" id="stop3168" offset="0"/><stop style="stop-color:#9e0c00" id="stop3170" offset=".99"/><stop style="stop-color:#9e0c00" id="stop3172" offset="1"/></linearGradient><path style="fill:url(#linearGradient3992);fill-rule:evenodd" id="path3174" d="m 93.378,103.875 11.159,44.203 c 13.127,-13.803 24.91,-28.644 30.68,-47.003 l -41.839,2.8 z" clip-path="url(#XMLID_3_)" clip-rule="evenodd"/><linearGradient id="XMLID_16_" x1="135.188" x2="123.467" y1="91.898" y2="79.369" gradientUnits="userSpaceOnUse"><stop style="stop-color:#79130d" id="stop3177" offset="0"/><stop style="stop-color:#79130d" id="stop3179" offset="0"/><stop style="stop-color:#9e120b" id="stop3181" offset=".99"/><stop style="stop-color:#9e120b" id="stop3183" offset="1"/></linearGradient><path style="fill:url(#linearGradient3994);fill-rule:evenodd" id="path3185" d="m 135.104,101.298 c 4.465,-13.479 5.494,-32.815 -15.559,-36.405 l -17.283,9.545 32.842,26.86 z" clip-path="url(#XMLID_3_)" clip-rule="evenodd"/><radialGradient id="XMLID_17_" cx="106.7" cy="109.885" r="28.831" fx="106.7" fy="109.885" gradientUnits="userSpaceOnUse"><stop style="stop-color:#a80d00" id="stop3188" offset="0"/><stop style="stop-color:#a80d00" id="stop3190" offset="0"/><stop style="stop-color:#7e0e08" id="stop3192" offset=".99"/><stop style="stop-color:#7e0e08" id="stop3194" offset="1"/></radialGradient><path style="fill:url(#radialGradient3996);fill-rule:evenodd" id="path3196" d="m 93.439,103.943 c 10.088,6.201 30.42,18.655 30.833,18.886 0.643,0.359 8.767,-13.701 10.609,-21.652 l -41.442,2.766 z" clip-path="url(#XMLID_3_)" clip-rule="evenodd"/><radialGradient id="XMLID_18_" cx="66.769" cy="147.885" r="38.331" fx="66.769" fy="147.885" gradientUnits="userSpaceOnUse"><stop style="stop-color:#a30c00" id="stop3199" offset="0"/><stop style="stop-color:#a30c00" id="stop3201" offset="0"/><stop style="stop-color:#800e08" id="stop3203" offset=".99"/><stop style="stop-color:#800e08" id="stop3205" offset="1"/></radialGradient><path style="fill:url(#radialGradient3998);fill-rule:evenodd" id="path3207" d="m 60.892,134.09 17.498,33.762 c 10.35,-5.611 18.451,-12.449 25.87,-19.773 L 60.892,134.09 z" clip-path="url(#XMLID_3_)" clip-rule="evenodd"/><path style="fill:none;stroke:#fff" id="path3209" d="M 60.892,134.09 104.619,148.129 93.441,103.942 60.892,134.09 z" clip-path="url(#XMLID_3_)" clip-rule="evenodd"/><path style="fill:none;stroke:#fff" id="path3211" d="m 93.056,103.995 41.978,-2.74 -32.839,-26.822 -9.139,29.562 z" clip-path="url(#XMLID_3_)" clip-rule="evenodd"/><path style="fill:none;stroke:#fff" id="path3213" d="m 47.82,177.447 13.09,-43.357 43.469,13.965 C 88.662,162.793 71.181,175.254 47.82,177.447 z" clip-path="url(#XMLID_3_)" clip-rule="evenodd"/><path style="fill:none;stroke:#fff;stroke-width:2;stroke-linecap:round;stroke-linejoin:round" id="path3215" d="m 93.378,103.875 11.157,44.203 c 11.061,-11.629 25.918,-31.843 30.683,-47.003 l -41.84,2.8 z" clip-path="url(#XMLID_3_)" clip-rule="evenodd"/><path style="fill:none;stroke:#fff;stroke-width:.5" id="path3217" d="m 93.441,103.942 c 10.086,6.201 30.418,18.656 30.829,18.889 0.643,0.359 8.768,-13.703 10.61,-21.654 l -41.439,2.765 z" clip-path="url(#XMLID_3_)" clip-rule="evenodd"/><path style="fill:none;stroke:#fff;stroke-width:.5" id="path3219" d="m 60.892,134.09 17.498,33.762 c 10.35,-5.611 18.451,-12.449 25.87,-19.773 L 60.892,134.09 z" clip-path="url(#XMLID_3_)" clip-rule="evenodd"/><path style="fill:none;stroke:#fff;stroke-width:.5" id="path3221" d="m 102.158,74.512 34.76,4.881 c -1.853,-7.865 -7.551,-12.938 -17.26,-14.523 l -17.5,9.642 z" clip-path="url(#XMLID_3_)" clip-rule="evenodd"/><path style="fill:none;stroke:#fff" id="path3223" d="m 25.455,122.061 6.586,18.677 28.611,-6.416 32.67,-30.361 9.215,-29.283 -14.516,-10.25 -24.676,9.236 c -7.777,7.232 -22.865,21.541 -23.41,21.812 -0.537,0.276 -9.963,18.087 -14.48,26.585 z" clip-path="url(#XMLID_3_)" clip-rule="evenodd"/><path style="fill:#fff;fill-rule:evenodd;stroke:#fff" id="path3225" d="m 25.455,122.059 6.586,18.679 28.611,-6.416 32.668,-30.361 9.217,-29.283 -14.354,-9.95 -24.84,8.938 c -7.775,7.231 -22.863,21.541 -23.408,21.812 -0.537,0.274 -9.963,18.085 -14.48,26.581 z" clip-path="url(#XMLID_3_)" clip-rule="evenodd"/><linearGradient id="XMLID_19_" x1="13.721" x2="101.652" y1="153.238" y2="62.82" gradientUnits="userSpaceOnUse"><stop style="stop-color:#bf0000" id="stop3228" offset="0"/><stop style="stop-color:#bf0000" id="stop3230" offset="0"/><stop style="stop-color:#fff" id="stop3232" offset=".07"/><stop style="stop-color:#fff" id="stop3234" offset=".17"/><stop style="stop-color:#c82f1c" id="stop3236" offset=".27"/><stop style="stop-color:#820c01" id="stop3238" offset=".33"/><stop style="stop-color:#a31601" id="stop3240" offset=".46"/><stop style="stop-color:#b31300" id="stop3242" offset=".72"/><stop style="stop-color:#e82609" id="stop3244" offset=".99"/><stop style="stop-color:#e82609" id="stop3246" offset="1"/></linearGradient><path style="fill:url(#linearGradient4000);fill-rule:evenodd" id="path3248" d="M 48.576,88.507 C 65.428,71.799 87.154,61.926 95.49,70.337 c 8.329,8.412 -0.506,28.855 -17.357,45.556 -16.85,16.703 -38.305,27.119 -46.637,18.707 -8.338,-8.407 0.228,-29.391 17.08,-46.093 z" clip-path="url(#XMLID_3_)" clip-rule="evenodd"/><g id="g3250"><path style="fill:none" id="path3252" d="M 48.576,88.506 C 65.428,71.799 87.154,61.926 95.49,70.336 103.819,78.748 94.986,99.191 78.135,115.893 61.283,132.596 39.828,143.01 31.496,134.6 23.158,126.195 31.724,105.209 48.576,88.506 z" clip-path="url(#XMLID_3_)" clip-rule="evenodd" enable-background="new"/><path style="fill:#fff;fill-rule:evenodd" id="path3254" d="m 47.871,87.796 c -12.471,12.362 -20.559,27.168 -20.604,37.719 0,0.031 0,0.061 0,0.09 0,4.082 1.184,7.346 3.518,9.697 2.135,2.154 5.086,3.256 8.771,3.273 10.348,0.047 25.768,-8.578 39.281,-21.973 C 97.216,98.388 104.677,78.196 96.199,69.631 94.01,67.422 90.954,66.294 87.118,66.277 76.671,66.233 60.899,74.88 47.871,87.796 z m -8.305,48.78 c -3.131,-0.201 -5.613,-0.916 -7.36,-2.682 -1.965,-1.98 -2.953,-4.795 -2.938,-8.369 0.043,-10.049 7.897,-24.301 20.012,-36.309 12.676,-12.567 27.549,-20.059 37.5,-20.016 3.286,0.015 5.866,0.944 7.668,2.763 7.551,7.626 0.445,26.778 -16.834,43.904 -12.956,12.84 -25.669,21.5 -38.048,20.709 z m 8.305,-48.78 z" clip-path="url(#XMLID_3_)" clip-rule="evenodd"/></g><path style="fill:#fff" id="path3256" d="m 100.104,75.846 -2.218,-15.85 4.635,15.287 4.223,-4.297 -2.117,5.619 18.367,-3.251 -17.809,5.668 5.375,5.033 -6.693,-2.932 3.059,21.11 -5.477,-20.548 -4.663,4.765 2.559,-6.087 -17.375,3.307 16.82,-5.723 -4.436,-4.331 5.75,2.23 z" clip-path="url(#XMLID_3_)"/></g><g id="layer1-8" transform="matrix(0.32338889,0,0,0.32338889,158.55934,358.50199)"><g id="g1772"><path id="path2844" d="m 18.627569,3.1435548 c -8.13913,0 -14.7448008,6.6056711 -14.7448008,14.7448012 0,8.13913 6.6056708,14.744802 14.7448008,14.744802 3.479555,0 6.551001,-1.384393 9.073723,-3.402647 -0.205377,1.006881 -0.07803,2.035368 0.756144,2.759925 l 10.964084,9.52741 c 1.233416,1.071329 3.087462,0.93096 4.15879,-0.302457 1.071328,-1.233418 0.930959,-3.087462 -0.302457,-4.15879 L 32.313769,27.529188 c -0.671527,-0.583279 -1.492878,-0.755969 -2.306238,-0.642722 1.9867,-2.512422 3.364839,-5.548803 3.364839,-8.99811 0,-8.1391301 -6.605671,-14.7448012 -14.744801,-14.7448012 z m -0.07562,1.2261833 c 7.639459,0 13.291775,4.7889505 13.291775,13.2917749 0,8.675113 -5.81669,13.291775 -13.291775,13.291775 -7.302949,0 -13.2917734,-5.478092 -13.2917734,-13.291775 0,-7.9841069 5.8246384,-13.291775 13.2917734,-13.2917749 z" style="color:#000;fill:#dcdcdc;fill-opacity:1;fill-rule:evenodd;stroke:url(#linearGradient2852);stroke-width:2.00000095;stroke-linecap:round;stroke-linejoin:miter;stroke-miterlimit:10;stroke-opacity:1;stroke-dasharray:none;stroke-dashoffset:0;marker:none;visibility:visible;display:inline;overflow:visible"/><path style="color:#000;fill:#dcdcdc;fill-opacity:1;fill-rule:evenodd;stroke:none;stroke-width:1.00000036;marker:none;visibility:visible;display:inline;overflow:visible" id="path4430" d="m 18.602905,3.0803551 c -8.16544,0 -14.7924642,6.627024 -14.7924642,14.7924639 0,8.16544 6.6270242,14.792464 14.7924642,14.792464 3.490803,0 6.572177,-1.388867 9.103055,-3.413645 -0.206041,1.010136 -0.07829,2.041947 0.758587,2.768846 l 10.999526,9.558207 c 1.237403,1.074792 3.097442,0.93397 4.172233,-0.303435 1.074791,-1.237404 0.933968,-3.097442 -0.303435,-4.172233 L 32.333346,27.544815 c -0.673698,-0.585164 -1.497704,-0.758413 -2.313693,-0.644799 1.993122,-2.520544 3.375716,-5.56674 3.375716,-9.027197 0,-8.1654399 -6.627024,-14.7924639 -14.792464,-14.7924639 z m -0.07586,3.1860692 c 6.281108,2e-7 11.378818,5.0977107 11.378818,11.3788187 0,6.281108 -5.09771,11.378818 -11.378818,11.378818 -6.281108,0 -11.3788184,-5.09771 -11.3788184,-11.378818 2e-7,-6.281108 5.0977104,-11.3788187 11.3788184,-11.3788187 z"/><path style="color:#000;fill:url(#linearGradient4446);fill-opacity:1;fill-rule:evenodd;stroke:none;stroke-width:1;marker:none;visibility:visible;display:inline;overflow:visible" id="path4438" d="m 39.507004,41.57769 c -0.478672,-2.273187 1.39733,-4.811422 3.584053,-4.788375 0,0 -10.760367,-9.258111 -10.760367,-9.258111 -2.944791,-0.05671 -4.269502,2.272616 -3.776814,4.599922 l 10.953128,9.446564 z"/><path style="color:#000;fill:none;stroke:url(#linearGradient2372);stroke-width:.8027336;stroke-linecap:round;stroke-linejoin:miter;stroke-miterlimit:10;stroke-opacity:1;stroke-dasharray:none;stroke-dashoffset:0;marker:none;visibility:visible;display:inline;overflow:visible" id="path4450" d="m 28.549437,18.920233 c 0,6.101942 -4.946602,11.048544 -11.048544,11.048544 -6.101943,0 -11.0485443,-4.946602 -11.0485443,-11.048544 0,-6.101943 4.9466013,-11.0485442 11.0485443,-11.0485442 6.101942,0 11.048544,4.9466012 11.048544,11.0485442 z" transform="matrix(1.245743,0,0,1.245743,-3.425346,-6.177033)"/><rect style="opacity:.43315507;color:#000;fill:none;stroke:#fff;stroke-width:1.00003111;stroke-linecap:round;stroke-linejoin:miter;stroke-miterlimit:10;stroke-opacity:1;stroke-dasharray:none;stroke-dashoffset:0;marker:none;visibility:visible;display:inline;overflow:visible" id="rect4495" width="19.048" height="4.44" x="40.373" y=".141" rx="2.137" ry="1.888" transform="matrix(0.752986,0.658037,-0.648902,0.760872,0,0)"/><path style="color:#000;fill:url(#radialGradient4460);fill-opacity:1;fill-rule:evenodd;stroke:#3063a3;stroke-width:.71499395;stroke-linecap:round;stroke-linejoin:miter;stroke-miterlimit:10;stroke-opacity:1;stroke-dashoffset:0;marker:none;visibility:visible" id="path4452" d="m 25.897786,18.478292 c 0,4.588661 -3.719844,8.308506 -8.308505,8.308506 -4.588661,0 -8.308505,-3.719845 -8.308505,-8.308506 0,-4.58866 3.719844,-8.308505 8.308505,-8.308505 4.588661,0 8.308505,3.719845 8.308505,8.308505 z" transform="matrix(1.398614,0,0,1.398614,-6.224338,-8.298958)"/><path style="opacity:.83422457;color:#000;fill:url(#radialGradient4473);fill-opacity:1;fill-rule:evenodd;stroke:none;stroke-width:1;marker:none;visibility:visible;display:inline;overflow:visible" id="path4462" d="m 18.156915,7.3966938 c -5.20759,0 -9.4245469,4.2169572 -9.4245469,9.4245472 0,1.503975 0.4203072,2.887773 1.0471719,4.149903 1.25238,0.461613 2.582757,0.775683 3.994767,0.775683 6.170955,0 11.099282,-4.861637 11.480106,-10.937129 C 23.523449,8.7641668 21.044374,7.3966938 18.156915,7.3966938 z"/></g></g><g id="g3292" transform="translate(166.78057,228.97725)"><radialGradient id="XMLID_20_" cx="15.874" cy="207.574" r="17.632" fx="15.874" fy="207.574" gradientUnits="userSpaceOnUse"><stop style="stop-color:#a30c00" id="stop3295" offset="0"/><stop style="stop-color:#a30c00" id="stop3297" offset="0"/><stop style="stop-color:#800e08" id="stop3299" offset=".99"/><stop style="stop-color:#800e08" id="stop3301" offset="1"/></radialGradient><radialGradient id="XMLID_21_" cx="40.91" cy="215.856" r="11.552" fx="40.91" fy="215.856" gradientUnits="userSpaceOnUse"><stop style="stop-color:#a30c00" id="stop3306" offset="0"/><stop style="stop-color:#a30c00" id="stop3308" offset="0"/><stop style="stop-color:#800e08" id="stop3310" offset=".99"/><stop style="stop-color:#800e08" id="stop3312" offset="1"/></radialGradient><radialGradient id="XMLID_22_" cx="66.22" cy="215.262" r="13.243" fx="66.22" fy="215.262" gradientUnits="userSpaceOnUse"><stop style="stop-color:#a30c00" id="stop3317" offset="0"/><stop style="stop-color:#a30c00" id="stop3319" offset="0"/><stop style="stop-color:#800e08" id="stop3321" offset=".99"/><stop style="stop-color:#800e08" id="stop3323" offset="1"/></radialGradient><radialGradient id="XMLID_23_" cx="91.767" cy="220.746" r="15.547" fx="91.767" fy="220.746" gradientUnits="userSpaceOnUse"><stop style="stop-color:#a30c00" id="stop3328" offset="0"/><stop style="stop-color:#a30c00" id="stop3330" offset="0"/><stop style="stop-color:#800e08" id="stop3332" offset=".99"/><stop style="stop-color:#800e08" id="stop3334" offset="1"/></radialGradient><radialGradient id="XMLID_24_" cx="116.188" cy="215.543" r="12.992" fx="116.188" fy="215.543" gradientUnits="userSpaceOnUse"><stop style="stop-color:#a30c00" id="stop3339" offset="0"/><stop style="stop-color:#a30c00" id="stop3341" offset="0"/><stop style="stop-color:#800e08" id="stop3343" offset=".99"/><stop style="stop-color:#800e08" id="stop3345" offset="1"/></radialGradient><radialGradient id="XMLID_25_" cx="142.035" cy="215.856" r="11.552" fx="142.035" fy="215.856" gradientUnits="userSpaceOnUse"><stop style="stop-color:#a30c00" id="stop3350" offset="0"/><stop style="stop-color:#a30c00" id="stop3352" offset="0"/><stop style="stop-color:#800e08" id="stop3354" offset=".99"/><stop style="stop-color:#800e08" id="stop3356" offset="1"/></radialGradient><radialGradient id="XMLID_26_" cx="163.889" cy="220.746" r="15.547" fx="163.889" fy="220.746" gradientUnits="userSpaceOnUse"><stop style="stop-color:#a30c00" id="stop3361" offset="0"/><stop style="stop-color:#a30c00" id="stop3363" offset="0"/><stop style="stop-color:#800e08" id="stop3365" offset=".99"/><stop style="stop-color:#800e08" id="stop3367" offset="1"/></radialGradient><radialGradient id="XMLID_27_" cx="185.797" cy="215.856" r="11.396" fx="185.797" fy="215.856" gradientUnits="userSpaceOnUse"><stop style="stop-color:#a30c00" id="stop3372" offset="0"/><stop style="stop-color:#a30c00" id="stop3374" offset="0"/><stop style="stop-color:#800e08" id="stop3376" offset=".99"/><stop style="stop-color:#800e08" id="stop3378" offset="1"/></radialGradient></g></g></g></svg>